{
    "patcher": {
        "fileversion": 1,
        "appversion": {
            "major": 9,
            "minor": 1,
            "revision": 0,
            "architecture": "x64",
            "modernui": 1
        },
        "classnamespace": "box",
        "rect": [ 100.0, 100.0, 745.0, 729.0 ],
        "openrect": [ 0.0, 0.0, 130.0, 240.0 ],
        "openrectmode": 0,
        "openinpresentation": 1,
        "toolbarvisible": 0,
        "enablehscroll": 0,
        "enablevscroll": 0,
        "boxes": [
            {
                "box": {
                    "id": "obj-27",
                    "maxclass": "newobj",
                    "numinlets": 2,
                    "numoutlets": 1,
                    "outlettype": [ "" ],
                    "patcher": {
                        "fileversion": 1,
                        "appversion": {
                            "major": 9,
                            "minor": 1,
                            "revision": 0,
                            "architecture": "x64",
                            "modernui": 1
                        },
                        "classnamespace": "box",
                        "rect": [ 59.0, 107.0, 1000.0, 780.0 ],
                        "boxes": [
                            {
                                "box": {
                                    "id": "obj-12",
                                    "maxclass": "newobj",
                                    "numinlets": 2,
                                    "numoutlets": 2,
                                    "outlettype": [ "", "" ],
                                    "patching_rect": [ 50.0, 176.0, 55.0, 22.0 ],
                                    "text": "zl.join"
                                }
                            },
                            {
                                "box": {
                                    "id": "obj-11",
                                    "maxclass": "newobj",
                                    "numinlets": 2,
                                    "numoutlets": 1,
                                    "outlettype": [ "int" ],
                                    "patching_rect": [ 86.0, 137.0, 29.5, 22.0 ],
                                    "text": "/ 1"
                                }
                            },
                            {
                                "box": {
                                    "id": "obj-2",
                                    "maxclass": "newobj",
                                    "numinlets": 2,
                                    "numoutlets": 2,
                                    "outlettype": [ "", "" ],
                                    "patching_rect": [ 50.0, 100.0, 55.0, 22.0 ],
                                    "text": "zl.slice 1"
                                }
                            },
                            {
                                "box": {
                                    "comment": "",
                                    "id": "obj-19",
                                    "index": 1,
                                    "maxclass": "inlet",
                                    "numinlets": 0,
                                    "numoutlets": 1,
                                    "outlettype": [ "" ],
                                    "patching_rect": [ 50.0, 40.0, 30.0, 30.0 ]
                                }
                            },
                            {
                                "box": {
                                    "comment": "",
                                    "id": "obj-20",
                                    "index": 2,
                                    "maxclass": "inlet",
                                    "numinlets": 0,
                                    "numoutlets": 1,
                                    "outlettype": [ "" ],
                                    "patching_rect": [ 96.0, 40.0, 30.0, 30.0 ]
                                }
                            },
                            {
                                "box": {
                                    "comment": "",
                                    "id": "obj-21",
                                    "index": 1,
                                    "maxclass": "outlet",
                                    "numinlets": 1,
                                    "numoutlets": 0,
                                    "patching_rect": [ 50.0, 258.0, 30.0, 30.0 ]
                                }
                            }
                        ],
                        "lines": [
                            {
                                "patchline": {
                                    "destination": [ "obj-12", 1 ],
                                    "source": [ "obj-11", 0 ]
                                }
                            },
                            {
                                "patchline": {
                                    "destination": [ "obj-21", 0 ],
                                    "source": [ "obj-12", 0 ]
                                }
                            },
                            {
                                "patchline": {
                                    "destination": [ "obj-2", 0 ],
                                    "source": [ "obj-19", 0 ]
                                }
                            },
                            {
                                "patchline": {
                                    "destination": [ "obj-11", 0 ],
                                    "source": [ "obj-2", 1 ]
                                }
                            },
                            {
                                "patchline": {
                                    "destination": [ "obj-12", 0 ],
                                    "source": [ "obj-2", 0 ]
                                }
                            },
                            {
                                "patchline": {
                                    "destination": [ "obj-11", 1 ],
                                    "source": [ "obj-20", 0 ]
                                }
                            }
                        ],
                        "toolbaradditions": [ "audiomute", "audiosolo" ]
                    },
                    "patching_rect": [ 185.0, 112.0, 29.5, 22.0 ],
                    "text": "p"
                }
            },
            {
                "box": {
                    "id": "obj-26",
                    "maxclass": "newobj",
                    "numinlets": 2,
                    "numoutlets": 1,
                    "outlettype": [ "" ],
                    "patcher": {
                        "fileversion": 1,
                        "appversion": {
                            "major": 9,
                            "minor": 1,
                            "revision": 0,
                            "architecture": "x64",
                            "modernui": 1
                        },
                        "classnamespace": "box",
                        "rect": [ 59.0, 107.0, 1000.0, 780.0 ],
                        "boxes": [
                            {
                                "box": {
                                    "id": "obj-12",
                                    "maxclass": "newobj",
                                    "numinlets": 2,
                                    "numoutlets": 2,
                                    "outlettype": [ "", "" ],
                                    "patching_rect": [ 50.0, 176.0, 55.0, 22.0 ],
                                    "text": "zl.join"
                                }
                            },
                            {
                                "box": {
                                    "id": "obj-11",
                                    "maxclass": "newobj",
                                    "numinlets": 2,
                                    "numoutlets": 1,
                                    "outlettype": [ "int" ],
                                    "patching_rect": [ 86.0, 137.0, 29.5, 22.0 ],
                                    "text": "/ 1"
                                }
                            },
                            {
                                "box": {
                                    "id": "obj-2",
                                    "maxclass": "newobj",
                                    "numinlets": 2,
                                    "numoutlets": 2,
                                    "outlettype": [ "", "" ],
                                    "patching_rect": [ 50.0, 100.0, 55.0, 22.0 ],
                                    "text": "zl.slice 1"
                                }
                            },
                            {
                                "box": {
                                    "comment": "",
                                    "id": "obj-19",
                                    "index": 1,
                                    "maxclass": "inlet",
                                    "numinlets": 0,
                                    "numoutlets": 1,
                                    "outlettype": [ "" ],
                                    "patching_rect": [ 50.0, 40.0, 30.0, 30.0 ]
                                }
                            },
                            {
                                "box": {
                                    "comment": "",
                                    "id": "obj-20",
                                    "index": 2,
                                    "maxclass": "inlet",
                                    "numinlets": 0,
                                    "numoutlets": 1,
                                    "outlettype": [ "" ],
                                    "patching_rect": [ 96.0, 40.0, 30.0, 30.0 ]
                                }
                            },
                            {
                                "box": {
                                    "comment": "",
                                    "id": "obj-21",
                                    "index": 1,
                                    "maxclass": "outlet",
                                    "numinlets": 1,
                                    "numoutlets": 0,
                                    "patching_rect": [ 50.0, 258.0, 30.0, 30.0 ]
                                }
                            }
                        ],
                        "lines": [
                            {
                                "patchline": {
                                    "destination": [ "obj-12", 1 ],
                                    "source": [ "obj-11", 0 ]
                                }
                            },
                            {
                                "patchline": {
                                    "destination": [ "obj-21", 0 ],
                                    "source": [ "obj-12", 0 ]
                                }
                            },
                            {
                                "patchline": {
                                    "destination": [ "obj-2", 0 ],
                                    "source": [ "obj-19", 0 ]
                                }
                            },
                            {
                                "patchline": {
                                    "destination": [ "obj-11", 0 ],
                                    "source": [ "obj-2", 1 ]
                                }
                            },
                            {
                                "patchline": {
                                    "destination": [ "obj-12", 0 ],
                                    "source": [ "obj-2", 0 ]
                                }
                            },
                            {
                                "patchline": {
                                    "destination": [ "obj-11", 1 ],
                                    "source": [ "obj-20", 0 ]
                                }
                            }
                        ],
                        "toolbaradditions": [ "audiomute", "audiosolo" ]
                    },
                    "patching_rect": [ 117.0, 112.0, 29.5, 22.0 ],
                    "text": "p"
                }
            },
            {
                "box": {
                    "id": "obj-24",
                    "maxclass": "newobj",
                    "numinlets": 3,
                    "numoutlets": 3,
                    "outlettype": [ "", "", "" ],
                    "patching_rect": [ 117.0, 58.0, 154.0, 22.0 ],
                    "text": "routepass Formative Target"
                }
            },
            {
                "box": {
                    "id": "obj-23",
                    "maxclass": "newobj",
                    "numinlets": 2,
                    "numoutlets": 1,
                    "outlettype": [ "" ],
                    "patcher": {
                        "fileversion": 1,
                        "appversion": {
                            "major": 9,
                            "minor": 1,
                            "revision": 0,
                            "architecture": "x64",
                            "modernui": 1
                        },
                        "classnamespace": "box",
                        "rect": [ 0.0, 0.0, 1000.0, 780.0 ],
                        "boxes": [
                            {
                                "box": {
                                    "id": "obj-12",
                                    "maxclass": "newobj",
                                    "numinlets": 2,
                                    "numoutlets": 2,
                                    "outlettype": [ "", "" ],
                                    "patching_rect": [ 50.0, 176.0, 55.0, 22.0 ],
                                    "text": "zl.join"
                                }
                            },
                            {
                                "box": {
                                    "id": "obj-11",
                                    "maxclass": "newobj",
                                    "numinlets": 2,
                                    "numoutlets": 1,
                                    "outlettype": [ "int" ],
                                    "patching_rect": [ 86.0, 137.0, 29.5, 22.0 ],
                                    "text": "* 1"
                                }
                            },
                            {
                                "box": {
                                    "id": "obj-2",
                                    "maxclass": "newobj",
                                    "numinlets": 2,
                                    "numoutlets": 2,
                                    "outlettype": [ "", "" ],
                                    "patching_rect": [ 50.0, 100.0, 55.0, 22.0 ],
                                    "text": "zl.slice 1"
                                }
                            },
                            {
                                "box": {
                                    "comment": "",
                                    "id": "obj-19",
                                    "index": 1,
                                    "maxclass": "inlet",
                                    "numinlets": 0,
                                    "numoutlets": 1,
                                    "outlettype": [ "" ],
                                    "patching_rect": [ 50.0, 40.0, 30.0, 30.0 ]
                                }
                            },
                            {
                                "box": {
                                    "comment": "",
                                    "id": "obj-20",
                                    "index": 2,
                                    "maxclass": "inlet",
                                    "numinlets": 0,
                                    "numoutlets": 1,
                                    "outlettype": [ "" ],
                                    "patching_rect": [ 96.0, 40.0, 30.0, 30.0 ]
                                }
                            },
                            {
                                "box": {
                                    "comment": "",
                                    "id": "obj-21",
                                    "index": 1,
                                    "maxclass": "outlet",
                                    "numinlets": 1,
                                    "numoutlets": 0,
                                    "patching_rect": [ 50.0, 258.0, 30.0, 30.0 ]
                                }
                            }
                        ],
                        "lines": [
                            {
                                "patchline": {
                                    "destination": [ "obj-12", 1 ],
                                    "source": [ "obj-11", 0 ]
                                }
                            },
                            {
                                "patchline": {
                                    "destination": [ "obj-21", 0 ],
                                    "source": [ "obj-12", 0 ]
                                }
                            },
                            {
                                "patchline": {
                                    "destination": [ "obj-2", 0 ],
                                    "source": [ "obj-19", 0 ]
                                }
                            },
                            {
                                "patchline": {
                                    "destination": [ "obj-11", 0 ],
                                    "source": [ "obj-2", 1 ]
                                }
                            },
                            {
                                "patchline": {
                                    "destination": [ "obj-12", 0 ],
                                    "source": [ "obj-2", 0 ]
                                }
                            },
                            {
                                "patchline": {
                                    "destination": [ "obj-11", 1 ],
                                    "source": [ "obj-20", 0 ]
                                }
                            }
                        ]
                    },
                    "patching_rect": [ 438.0, 453.0, 29.5, 22.0 ],
                    "text": "p"
                }
            },
            {
                "box": {
                    "id": "obj-22",
                    "maxclass": "newobj",
                    "numinlets": 2,
                    "numoutlets": 1,
                    "outlettype": [ "" ],
                    "patcher": {
                        "fileversion": 1,
                        "appversion": {
                            "major": 9,
                            "minor": 1,
                            "revision": 0,
                            "architecture": "x64",
                            "modernui": 1
                        },
                        "classnamespace": "box",
                        "rect": [ 59.0, 107.0, 1000.0, 780.0 ],
                        "boxes": [
                            {
                                "box": {
                                    "id": "obj-12",
                                    "maxclass": "newobj",
                                    "numinlets": 2,
                                    "numoutlets": 2,
                                    "outlettype": [ "", "" ],
                                    "patching_rect": [ 50.0, 176.0, 55.0, 22.0 ],
                                    "text": "zl.join"
                                }
                            },
                            {
                                "box": {
                                    "id": "obj-11",
                                    "maxclass": "newobj",
                                    "numinlets": 2,
                                    "numoutlets": 1,
                                    "outlettype": [ "int" ],
                                    "patching_rect": [ 86.0, 137.0, 29.5, 22.0 ],
                                    "text": "* 1"
                                }
                            },
                            {
                                "box": {
                                    "id": "obj-2",
                                    "maxclass": "newobj",
                                    "numinlets": 2,
                                    "numoutlets": 2,
                                    "outlettype": [ "", "" ],
                                    "patching_rect": [ 50.0, 100.0, 55.0, 22.0 ],
                                    "text": "zl.slice 1"
                                }
                            },
                            {
                                "box": {
                                    "comment": "",
                                    "id": "obj-19",
                                    "index": 1,
                                    "maxclass": "inlet",
                                    "numinlets": 0,
                                    "numoutlets": 1,
                                    "outlettype": [ "" ],
                                    "patching_rect": [ 50.0, 40.0, 30.0, 30.0 ]
                                }
                            },
                            {
                                "box": {
                                    "comment": "",
                                    "id": "obj-20",
                                    "index": 2,
                                    "maxclass": "inlet",
                                    "numinlets": 0,
                                    "numoutlets": 1,
                                    "outlettype": [ "" ],
                                    "patching_rect": [ 96.0, 40.0, 30.0, 30.0 ]
                                }
                            },
                            {
                                "box": {
                                    "comment": "",
                                    "id": "obj-21",
                                    "index": 1,
                                    "maxclass": "outlet",
                                    "numinlets": 1,
                                    "numoutlets": 0,
                                    "patching_rect": [ 50.0, 258.0, 30.0, 30.0 ]
                                }
                            }
                        ],
                        "lines": [
                            {
                                "patchline": {
                                    "destination": [ "obj-12", 1 ],
                                    "source": [ "obj-11", 0 ]
                                }
                            },
                            {
                                "patchline": {
                                    "destination": [ "obj-21", 0 ],
                                    "source": [ "obj-12", 0 ]
                                }
                            },
                            {
                                "patchline": {
                                    "destination": [ "obj-2", 0 ],
                                    "source": [ "obj-19", 0 ]
                                }
                            },
                            {
                                "patchline": {
                                    "destination": [ "obj-11", 0 ],
                                    "source": [ "obj-2", 1 ]
                                }
                            },
                            {
                                "patchline": {
                                    "destination": [ "obj-12", 0 ],
                                    "source": [ "obj-2", 0 ]
                                }
                            },
                            {
                                "patchline": {
                                    "destination": [ "obj-11", 1 ],
                                    "source": [ "obj-20", 0 ]
                                }
                            }
                        ],
                        "toolbaradditions": [ "audiomute", "audiosolo" ]
                    },
                    "patching_rect": [ 303.0, 453.0, 29.5, 22.0 ],
                    "text": "p"
                }
            },
            {
                "box": {
                    "id": "obj-18",
                    "maxclass": "newobj",
                    "numinlets": 2,
                    "numoutlets": 2,
                    "outlettype": [ "", "" ],
                    "patching_rect": [ 361.0, 67.0, 47.0, 22.0 ],
                    "text": "zl.nth 2"
                }
            },
            {
                "box": {
                    "id": "obj-16",
                    "maxclass": "newobj",
                    "numinlets": 1,
                    "numoutlets": 2,
                    "outlettype": [ "", "" ],
                    "patching_rect": [ 361.0, 29.0, 100.0, 22.0 ],
                    "text": "patcherargs"
                }
            },
            {
                "box": {
                    "id": "obj-8",
                    "linecount": 17,
                    "maxclass": "comment",
                    "numinlets": 1,
                    "numoutlets": 0,
                    "patching_rect": [ 30.0, 296.0, 117.0, 241.0 ],
                    "presentation": 1,
                    "presentation_linecount": 17,
                    "presentation_rect": [ 20.0, -1.0, 117.0, 241.0 ],
                    "saved_attribute_attributes": {
                        "textcolor": {
                            "expression": "themecolor.theme_textcolor_inverse"
                        }
                    },
                    "text": "F \nS\nR\nT\nF2\nS2\nR2\nT2\nlock\nmorph\nbreakpoints \nmarkers\nmute\noffset\n# of mc channels \n# of first channel      \nzoom",
                    "textcolor": [ 0.9, 0.9, 0.9, 1.0 ]
                }
            },
            {
                "box": {
                    "disabled": [ 0, 0, 0, 0, 0, 0, 0, 0, 0, 0, 0, 0, 0, 0, 0, 0, 0 ],
                    "hint": "Use flowSwing_filterAttributes to set the filter",
                    "id": "obj-9",
                    "ignoreclick": 1,
                    "itemtype": 1,
                    "maxclass": "radiogroup",
                    "numinlets": 1,
                    "numoutlets": 1,
                    "offset": 14,
                    "outlettype": [ "" ],
                    "parameter_enable": 0,
                    "patching_rect": [ 149.0, 297.0, 18.0, 240.0 ],
                    "presentation": 1,
                    "presentation_rect": [ 0.0, 0.0, 130.0, 240.0 ],
                    "shape": 1,
                    "size": 17,
                    "values": [ 0, 0, 0, 0, 0, 0, 0, 0, 0, 0, 0, 0, 0, 0, 0, 0, 0 ]
                }
            },
            {
                "box": {
                    "id": "obj-17",
                    "maxclass": "message",
                    "numinlets": 2,
                    "numoutlets": 1,
                    "outlettype": [ "" ],
                    "patching_rect": [ 192.0, 356.0, 50.0, 22.0 ],
                    "text": "$1 0 $2"
                }
            },
            {
                "box": {
                    "id": "obj-15",
                    "maxclass": "newobj",
                    "numinlets": 1,
                    "numoutlets": 1,
                    "outlettype": [ "list" ],
                    "patching_rect": [ 192.0, 318.0, 56.0, 22.0 ],
                    "text": "listfunnel"
                }
            },
            {
                "box": {
                    "fontsize": 12.0,
                    "id": "obj-14",
                    "maxclass": "newobj",
                    "numinlets": 18,
                    "numoutlets": 2,
                    "outlettype": [ "dictionary", "" ],
                    "patching_rect": [ 258.0, 508.0, 783.9999999999992, 22.0 ],
                    "text": "matrix 17 1"
                }
            },
            {
                "box": {
                    "comment": "",
                    "id": "obj-13",
                    "index": 0,
                    "maxclass": "outlet",
                    "numinlets": 1,
                    "numoutlets": 0,
                    "patching_rect": [ 1023.0, 542.0, 30.0, 30.0 ]
                }
            },
            {
                "box": {
                    "id": "obj-10",
                    "maxclass": "newobj",
                    "numinlets": 18,
                    "numoutlets": 18,
                    "outlettype": [ "", "", "", "", "", "", "", "", "", "", "", "", "", "", "", "", "", "" ],
                    "patching_rect": [ 303.0, 356.0, 784.0, 22.0 ],
                    "text": "routepass Formative S niRotation Target Formative2 S2 niRotation2 Target2 lock morph breakpoints markers mute offset chans firstChannel zoom"
                }
            },
            {
                "box": {
                    "id": "obj-7",
                    "maxclass": "newobj",
                    "numinlets": 2,
                    "numoutlets": 2,
                    "outlettype": [ "", "" ],
                    "patching_rect": [ 267.0, 308.0, 55.0, 22.0 ],
                    "text": "zl.slice 1"
                }
            },
            {
                "box": {
                    "id": "obj-6",
                    "maxclass": "newobj",
                    "numinlets": 3,
                    "numoutlets": 3,
                    "outlettype": [ "", "", "" ],
                    "patching_rect": [ 117.0, 260.0, 169.0, 22.0 ],
                    "text": "route #0node filterAttributes"
                }
            },
            {
                "box": {
                    "id": "obj-5",
                    "maxclass": "newobj",
                    "numinlets": 1,
                    "numoutlets": 1,
                    "outlettype": [ "" ],
                    "patching_rect": [ 117.0, 157.0, 109.0, 22.0 ],
                    "text": "prepend #0node"
                }
            },
            {
                "box": {
                    "id": "obj-4",
                    "maxclass": "newobj",
                    "numinlets": 0,
                    "numoutlets": 1,
                    "outlettype": [ "" ],
                    "patching_rect": [ 117.0, 223.0, 100.0, 22.0 ],
                    "text": "r #1"
                }
            },
            {
                "box": {
                    "id": "obj-3",
                    "maxclass": "newobj",
                    "numinlets": 1,
                    "numoutlets": 0,
                    "patching_rect": [ 117.0, 189.0, 100.0, 22.0 ],
                    "text": "send #1"
                }
            },
            {
                "box": {
                    "comment": "",
                    "id": "obj-1",
                    "index": 0,
                    "maxclass": "inlet",
                    "numinlets": 0,
                    "numoutlets": 1,
                    "outlettype": [ "" ],
                    "patching_rect": [ 117.0, 20.0, 30.0, 30.0 ]
                }
            }
        ],
        "lines": [
            {
                "patchline": {
                    "destination": [ "obj-24", 0 ],
                    "source": [ "obj-1", 0 ]
                }
            },
            {
                "patchline": {
                    "destination": [ "obj-14", 17 ],
                    "source": [ "obj-10", 16 ]
                }
            },
            {
                "patchline": {
                    "destination": [ "obj-14", 16 ],
                    "source": [ "obj-10", 15 ]
                }
            },
            {
                "patchline": {
                    "destination": [ "obj-14", 15 ],
                    "source": [ "obj-10", 14 ]
                }
            },
            {
                "patchline": {
                    "destination": [ "obj-14", 14 ],
                    "source": [ "obj-10", 13 ]
                }
            },
            {
                "patchline": {
                    "destination": [ "obj-14", 13 ],
                    "source": [ "obj-10", 12 ]
                }
            },
            {
                "patchline": {
                    "destination": [ "obj-14", 12 ],
                    "source": [ "obj-10", 11 ]
                }
            },
            {
                "patchline": {
                    "destination": [ "obj-14", 11 ],
                    "source": [ "obj-10", 10 ]
                }
            },
            {
                "patchline": {
                    "destination": [ "obj-14", 10 ],
                    "source": [ "obj-10", 9 ]
                }
            },
            {
                "patchline": {
                    "destination": [ "obj-14", 9 ],
                    "source": [ "obj-10", 8 ]
                }
            },
            {
                "patchline": {
                    "destination": [ "obj-14", 8 ],
                    "source": [ "obj-10", 7 ]
                }
            },
            {
                "patchline": {
                    "destination": [ "obj-14", 7 ],
                    "source": [ "obj-10", 6 ]
                }
            },
            {
                "patchline": {
                    "destination": [ "obj-14", 6 ],
                    "source": [ "obj-10", 5 ]
                }
            },
            {
                "patchline": {
                    "destination": [ "obj-14", 5 ],
                    "source": [ "obj-10", 4 ]
                }
            },
            {
                "patchline": {
                    "destination": [ "obj-14", 3 ],
                    "source": [ "obj-10", 2 ]
                }
            },
            {
                "patchline": {
                    "destination": [ "obj-14", 2 ],
                    "source": [ "obj-10", 1 ]
                }
            },
            {
                "patchline": {
                    "destination": [ "obj-22", 0 ],
                    "source": [ "obj-10", 0 ]
                }
            },
            {
                "patchline": {
                    "destination": [ "obj-23", 0 ],
                    "source": [ "obj-10", 3 ]
                }
            },
            {
                "patchline": {
                    "destination": [ "obj-13", 0 ],
                    "source": [ "obj-14", 1 ]
                }
            },
            {
                "patchline": {
                    "destination": [ "obj-17", 0 ],
                    "source": [ "obj-15", 0 ]
                }
            },
            {
                "patchline": {
                    "destination": [ "obj-18", 0 ],
                    "source": [ "obj-16", 0 ]
                }
            },
            {
                "patchline": {
                    "destination": [ "obj-14", 0 ],
                    "source": [ "obj-17", 0 ]
                }
            },
            {
                "patchline": {
                    "destination": [ "obj-22", 1 ],
                    "order": 1,
                    "source": [ "obj-18", 0 ]
                }
            },
            {
                "patchline": {
                    "destination": [ "obj-23", 1 ],
                    "order": 0,
                    "source": [ "obj-18", 0 ]
                }
            },
            {
                "patchline": {
                    "destination": [ "obj-26", 1 ],
                    "midpoints": [ 370.5, 106.5, 137.0, 106.5 ],
                    "order": 3,
                    "source": [ "obj-18", 0 ]
                }
            },
            {
                "patchline": {
                    "destination": [ "obj-27", 1 ],
                    "midpoints": [ 370.5, 106.5, 205.0, 106.5 ],
                    "order": 2,
                    "source": [ "obj-18", 0 ]
                }
            },
            {
                "patchline": {
                    "destination": [ "obj-14", 1 ],
                    "source": [ "obj-22", 0 ]
                }
            },
            {
                "patchline": {
                    "destination": [ "obj-14", 4 ],
                    "source": [ "obj-23", 0 ]
                }
            },
            {
                "patchline": {
                    "destination": [ "obj-26", 0 ],
                    "source": [ "obj-24", 0 ]
                }
            },
            {
                "patchline": {
                    "destination": [ "obj-27", 0 ],
                    "source": [ "obj-24", 1 ]
                }
            },
            {
                "patchline": {
                    "destination": [ "obj-5", 0 ],
                    "midpoints": [ 261.5, 146.0, 126.5, 146.0 ],
                    "source": [ "obj-24", 2 ]
                }
            },
            {
                "patchline": {
                    "destination": [ "obj-5", 0 ],
                    "source": [ "obj-26", 0 ]
                }
            },
            {
                "patchline": {
                    "destination": [ "obj-5", 0 ],
                    "source": [ "obj-27", 0 ]
                }
            },
            {
                "patchline": {
                    "destination": [ "obj-6", 0 ],
                    "source": [ "obj-4", 0 ]
                }
            },
            {
                "patchline": {
                    "destination": [ "obj-3", 0 ],
                    "source": [ "obj-5", 0 ]
                }
            },
            {
                "patchline": {
                    "destination": [ "obj-15", 0 ],
                    "order": 0,
                    "source": [ "obj-6", 1 ]
                }
            },
            {
                "patchline": {
                    "destination": [ "obj-7", 0 ],
                    "source": [ "obj-6", 2 ]
                }
            },
            {
                "patchline": {
                    "destination": [ "obj-9", 0 ],
                    "order": 1,
                    "source": [ "obj-6", 1 ]
                }
            },
            {
                "patchline": {
                    "destination": [ "obj-10", 0 ],
                    "source": [ "obj-7", 1 ]
                }
            }
        ],
        "autosave": 0,
        "toolbaradditions": [ "audiomute", "audiosolo" ]
    }
}