{
    "patcher": {
        "fileversion": 1,
        "appversion": {
            "major": 9,
            "minor": 1,
            "revision": 0,
            "architecture": "x64",
            "modernui": 1
        },
        "classnamespace": "box",
        "rect": [ 41.0, 83.0, 420.0, 566.0 ],
        "openrect": [ 0.0, 0.0, 130.0, 240.0 ],
        "openrectmode": 0,
        "openinpresentation": 1,
        "toolbarvisible": 0,
        "enablehscroll": 0,
        "enablevscroll": 0,
        "boxes": [
            {
                "box": {
                    "id": "obj-4",
                    "maxclass": "newobj",
                    "numinlets": 1,
                    "numoutlets": 1,
                    "outlettype": [ "" ],
                    "patching_rect": [ 108.0, 388.0, 129.0, 22.0 ],
                    "text": "prepend filterAttributes"
                }
            },
            {
                "box": {
                    "id": "obj-1",
                    "maxclass": "newobj",
                    "numinlets": 1,
                    "numoutlets": 0,
                    "patching_rect": [ 108.0, 429.0, 100.0, 22.0 ],
                    "text": "send #1"
                }
            },
            {
                "box": {
                    "id": "obj-2",
                    "linecount": 4,
                    "maxclass": "comment",
                    "numinlets": 1,
                    "numoutlets": 0,
                    "patching_rect": [ 214.0, 17.0, 287.0, 62.0 ],
                    "text": "setting the list through arguemnts interfers with preset. Until there is a safe way to use the arguments onyl when there is no preset, this is disabled. "
                }
            },
            {
                "box": {
                    "id": "obj-31",
                    "maxclass": "newobj",
                    "numinlets": 1,
                    "numoutlets": 1,
                    "outlettype": [ "" ],
                    "patcher": {
                        "fileversion": 1,
                        "appversion": {
                            "major": 9,
                            "minor": 1,
                            "revision": 0,
                            "architecture": "x64",
                            "modernui": 1
                        },
                        "classnamespace": "box",
                        "rect": [ 59.0, 107.0, 1000.0, 780.0 ],
                        "boxes": [
                            {
                                "box": {
                                    "id": "obj-2",
                                    "maxclass": "message",
                                    "numinlets": 2,
                                    "numoutlets": 1,
                                    "outlettype": [ "" ],
                                    "patching_rect": [ 167.5, 275.0, 32.0, 22.0 ],
                                    "text": "$1 1"
                                }
                            },
                            {
                                "box": {
                                    "id": "obj-28",
                                    "maxclass": "newobj",
                                    "numinlets": 1,
                                    "numoutlets": 1,
                                    "outlettype": [ "bang" ],
                                    "patching_rect": [ 50.0, 140.0, 25.0, 22.0 ],
                                    "text": "b 1"
                                }
                            },
                            {
                                "box": {
                                    "id": "obj-26",
                                    "maxclass": "newobj",
                                    "numinlets": 2,
                                    "numoutlets": 2,
                                    "outlettype": [ "", "" ],
                                    "patching_rect": [ 50.0, 336.0, 38.0, 22.0 ],
                                    "text": "zl.reg"
                                }
                            },
                            {
                                "box": {
                                    "id": "obj-25",
                                    "maxclass": "newobj",
                                    "numinlets": 2,
                                    "numoutlets": 2,
                                    "outlettype": [ "", "" ],
                                    "patching_rect": [ 87.0, 304.0, 99.5, 22.0 ],
                                    "text": "zl.nth 0 1"
                                }
                            },
                            {
                                "box": {
                                    "id": "obj-24",
                                    "maxclass": "newobj",
                                    "numinlets": 1,
                                    "numoutlets": 1,
                                    "outlettype": [ "" ],
                                    "patching_rect": [ 86.5, 181.0, 37.0, 22.0 ],
                                    "text": "iter"
                                }
                            },
                            {
                                "box": {
                                    "id": "obj-16",
                                    "maxclass": "newobj",
                                    "numinlets": 1,
                                    "numoutlets": 2,
                                    "outlettype": [ "bang", "int" ],
                                    "patching_rect": [ 86.5, 220.0, 100.0, 22.0 ],
                                    "text": "t b i"
                                }
                            },
                            {
                                "box": {
                                    "id": "obj-11",
                                    "maxclass": "newobj",
                                    "numinlets": 2,
                                    "numoutlets": 2,
                                    "outlettype": [ "", "" ],
                                    "patching_rect": [ 86.5, 247.0, 168.0, 22.0 ],
                                    "text": "zl.reg 0 0 0 0 0 0 0 0 0 0 0 0 0"
                                }
                            },
                            {
                                "box": {
                                    "id": "obj-9",
                                    "maxclass": "newobj",
                                    "numinlets": 2,
                                    "numoutlets": 2,
                                    "outlettype": [ "", "" ],
                                    "patching_rect": [ 86.5, 140.0, 61.0, 22.0 ],
                                    "text": "zl.slice 13"
                                }
                            },
                            {
                                "box": {
                                    "id": "obj-6",
                                    "maxclass": "newobj",
                                    "numinlets": 3,
                                    "numoutlets": 3,
                                    "outlettype": [ "", "", "" ],
                                    "patching_rect": [ 50.0, 100.0, 92.0, 22.0 ],
                                    "text": "route done filter"
                                }
                            },
                            {
                                "box": {
                                    "comment": "",
                                    "id": "obj-29",
                                    "index": 1,
                                    "maxclass": "inlet",
                                    "numinlets": 0,
                                    "numoutlets": 1,
                                    "outlettype": [ "" ],
                                    "patching_rect": [ 50.0, 40.0, 30.0, 30.0 ]
                                }
                            },
                            {
                                "box": {
                                    "comment": "",
                                    "id": "obj-30",
                                    "index": 1,
                                    "maxclass": "outlet",
                                    "numinlets": 1,
                                    "numoutlets": 0,
                                    "patching_rect": [ 50.0, 418.0, 30.0, 30.0 ]
                                }
                            }
                        ],
                        "lines": [
                            {
                                "patchline": {
                                    "destination": [ "obj-25", 0 ],
                                    "source": [ "obj-11", 0 ]
                                }
                            },
                            {
                                "patchline": {
                                    "destination": [ "obj-11", 0 ],
                                    "source": [ "obj-16", 0 ]
                                }
                            },
                            {
                                "patchline": {
                                    "destination": [ "obj-2", 0 ],
                                    "source": [ "obj-16", 1 ]
                                }
                            },
                            {
                                "patchline": {
                                    "destination": [ "obj-25", 1 ],
                                    "source": [ "obj-2", 0 ]
                                }
                            },
                            {
                                "patchline": {
                                    "destination": [ "obj-16", 0 ],
                                    "source": [ "obj-24", 0 ]
                                }
                            },
                            {
                                "patchline": {
                                    "destination": [ "obj-11", 1 ],
                                    "order": 0,
                                    "source": [ "obj-25", 1 ]
                                }
                            },
                            {
                                "patchline": {
                                    "destination": [ "obj-26", 1 ],
                                    "order": 1,
                                    "source": [ "obj-25", 1 ]
                                }
                            },
                            {
                                "patchline": {
                                    "destination": [ "obj-30", 0 ],
                                    "source": [ "obj-26", 0 ]
                                }
                            },
                            {
                                "patchline": {
                                    "destination": [ "obj-26", 0 ],
                                    "source": [ "obj-28", 0 ]
                                }
                            },
                            {
                                "patchline": {
                                    "destination": [ "obj-6", 0 ],
                                    "source": [ "obj-29", 0 ]
                                }
                            },
                            {
                                "patchline": {
                                    "destination": [ "obj-28", 0 ],
                                    "source": [ "obj-6", 0 ]
                                }
                            },
                            {
                                "patchline": {
                                    "destination": [ "obj-9", 0 ],
                                    "source": [ "obj-6", 1 ]
                                }
                            },
                            {
                                "patchline": {
                                    "destination": [ "obj-24", 0 ],
                                    "source": [ "obj-9", 0 ]
                                }
                            }
                        ],
                        "toolbaradditions": [ "audiomute", "audiosolo" ]
                    },
                    "patching_rect": [ 187.0, 56.0, 19.0, 22.0 ],
                    "text": "p"
                }
            },
            {
                "box": {
                    "id": "obj-3",
                    "maxclass": "newobj",
                    "numinlets": 1,
                    "numoutlets": 2,
                    "outlettype": [ "", "" ],
                    "patching_rect": [ 96.0, 17.0, 110.0, 22.0 ],
                    "text": "patcherargs @filter"
                }
            },
            {
                "box": {
                    "id": "obj-18",
                    "maxclass": "newobj",
                    "numinlets": 1,
                    "numoutlets": 3,
                    "outlettype": [ "", "", "" ],
                    "patching_rect": [ 63.0, 63.0, 109.0, 22.0 ],
                    "restore": [ 0, 0, 0, 0, 0, 0, 0, 0, 0, 0, 0, 0, 0, 0, 0, 0, 0 ],
                    "saved_object_attributes": {
                        "parameter_enable": 0,
                        "parameter_mappable": 0
                    },
                    "text": "pattr filterAttributes",
                    "varname": "filterAttributes"
                }
            },
            {
                "box": {
                    "id": "obj-8",
                    "linecount": 17,
                    "maxclass": "comment",
                    "numinlets": 1,
                    "numoutlets": 0,
                    "patching_rect": [ 128.0, 98.0, 117.0, 241.0 ],
                    "presentation": 1,
                    "presentation_linecount": 17,
                    "presentation_rect": [ 20.0, -1.0, 117.0, 241.0 ],
                    "saved_attribute_attributes": {
                        "textcolor": {
                            "expression": "themecolor.theme_textcolor_inverse"
                        }
                    },
                    "text": "F \nS\nR\nT\nF2\nS2\nR2\nT2\nlock\nmorph\nbreakpoints \nmarkers\nmute\noffset\n# of mc channels \n# of first channel      \nzoom",
                    "textcolor": [ 0.9, 0.9, 0.9, 1.0 ]
                }
            },
            {
                "box": {
                    "id": "obj-7",
                    "linecount": 17,
                    "maxclass": "comment",
                    "numinlets": 1,
                    "numoutlets": 0,
                    "patching_rect": [ 253.0, 104.0, 93.0, 241.0 ],
                    "text": "Formative \nS\nniRotation \nTarget\nFormative2\nS2\nniRotation2\nTarget2 \nlock\nmorph\nbreakpoints \nmarkers\nmute\noffset\nchans \nfirstChannel      \nzoom"
                }
            },
            {
                "box": {
                    "disabled": [ 0, 0, 0, 0, 0, 0, 0, 0, 0, 0, 0, 0, 0, 0, 0, 0, 0 ],
                    "id": "obj-5",
                    "itemtype": 1,
                    "maxclass": "radiogroup",
                    "numinlets": 1,
                    "numoutlets": 1,
                    "offset": 14,
                    "outlettype": [ "" ],
                    "parameter_enable": 1,
                    "patching_rect": [ 108.0, 98.0, 18.0, 240.0 ],
                    "presentation": 1,
                    "presentation_rect": [ 0.0, 0.0, 130.0, 240.0 ],
                    "saved_attribute_attributes": {
                        "valueof": {
                            "parameter_enum": [ "0", "1" ],
                            "parameter_invisible": 1,
                            "parameter_linknames": 1,
                            "parameter_longname": "filterAttributes_control",
                            "parameter_mmax": 16.0,
                            "parameter_modmode": 0,
                            "parameter_shortname": "filterAttributes_control",
                            "parameter_type": 3
                        }
                    },
                    "shape": 1,
                    "size": 17,
                    "values": [ 0, 0, 0, 0, 0, 0, 0, 0, 0, 0, 0, 0, 0, 0, 0, 0, 0 ],
                    "varname": "filterAttributes_control"
                }
            }
        ],
        "lines": [
            {
                "patchline": {
                    "destination": [ "obj-5", 0 ],
                    "source": [ "obj-18", 1 ]
                }
            },
            {
                "patchline": {
                    "destination": [ "obj-31", 0 ],
                    "source": [ "obj-3", 1 ]
                }
            },
            {
                "patchline": {
                    "destination": [ "obj-1", 0 ],
                    "source": [ "obj-4", 0 ]
                }
            },
            {
                "patchline": {
                    "destination": [ "obj-4", 0 ],
                    "source": [ "obj-5", 0 ]
                }
            }
        ],
        "parameters": {
            "obj-5": [ "filterAttributes_control", "filterAttributes_control", 0 ],
            "inherited_shortname": 1
        },
        "autosave": 0,
        "toolbaradditions": [ "audiomute", "audiosolo" ]
    }
}