{
    "patcher": {
        "fileversion": 1,
        "appversion": {
            "major": 9,
            "minor": 1,
            "revision": 0,
            "architecture": "x64",
            "modernui": 1
        },
        "classnamespace": "dsp.gen",
        "rect": [ 563.0, 271.0, 906.0, 652.0 ],
        "boxes": [
            {
                "box": {
                    "id": "obj-10",
                    "maxclass": "comment",
                    "numinlets": 1,
                    "numoutlets": 0,
                    "patching_rect": [ 729.0, 515.0, 97.0, 20.0 ],
                    "text": "segmemnt index"
                }
            },
            {
                "box": {
                    "id": "obj-7",
                    "maxclass": "comment",
                    "numinlets": 1,
                    "numoutlets": 0,
                    "patching_rect": [ 50.0, 522.0, 70.0, 20.0 ],
                    "text": "phase (0-1)"
                }
            },
            {
                "box": {
                    "id": "obj-3",
                    "maxclass": "newobj",
                    "numinlets": 1,
                    "numoutlets": 0,
                    "patching_rect": [ 729.0, 485.0, 35.0, 22.0 ],
                    "text": "out 2"
                }
            },
            {
                "box": {
                    "id": "obj-2",
                    "maxclass": "newobj",
                    "numinlets": 0,
                    "numoutlets": 1,
                    "outlettype": [ "" ],
                    "patching_rect": [ 725.0, 14.0, 28.0, 22.0 ],
                    "text": "in 2"
                }
            },
            {
                "box": {
                    "code": "// gen~ codebox\r\n\r\n// reference parent buffer~ named 'ramp'\r\nBuffer rampBuf(\"ramp\");\r\nData   rampActive(512);      // copy used for the current cycle\r\n\r\n\r\n// tiny epsilon\r\nParam eps(1e-6);\r\n\r\np = in1;\r\n//p = wrap(p_raw, 0, 1 - eps);\r\n\r\n\r\nupdate = change(in2);\r\n// on update: copy current rampBuf into rampActive\r\nif (update>0) {\r\n    len = dim(rampBuf);\r\n    for (i = 0; i < len; i += 1) {\r\n        bp = peek(rampBuf, i, 0);\r\n        poke(rampActive, bp, i);\r\n    }\r\n}\r\n\r\n\r\n\r\n// default output: pass-through if something goes wrong\r\nphase = p;\r\nseg = 0;\r\ncur = 0;\r\n\r\n// how many samples (breakpoints) are in the buffer\r\nlen = dim(rampBuf);\r\n\r\n// need at least two breakpoints: 0 and 1\r\nif (len > 1) {\r\n    // read first breakpoint (should be 0.)\r\n    prev = peek(rampActive, 0);\r\n    i = 1;\r\n    cur = 1;\r\n\r\n\r\n\r\n        // scan segments to find ramp[i-1] <= p <= ramp[i]\r\n    while (i < len) {\r\n            cur = peek(rampActive, i);\r\n\r\n            if (p <= cur) {\r\n                denom = cur - prev;\r\n                phase = (denom != 0) ? (p - prev) / denom : 0;\r\n                break;\r\n            }\r\n\r\n            prev = cur;\r\n            i += 1;\r\n    }\r\n    seg = i-1;\r\n    // if no segment found (p beyond last breakpoint),\r\n    // just clamp to 1\r\n    if (i >= len && p-cur>eps) {\r\n        phase = 1;\r\n        seg = -1;\r\n    }\r\n    \r\n}\r\n\r\nout1 = phase;\r\nout2 = seg;\r\n",
                    "fontface": 0,
                    "fontname": "<Monospaced>",
                    "fontsize": 12.0,
                    "id": "obj-5",
                    "maxclass": "codebox",
                    "numinlets": 2,
                    "numoutlets": 2,
                    "outlettype": [ "", "" ],
                    "patching_rect": [ 50.0, 61.0, 698.0, 397.0 ]
                }
            },
            {
                "box": {
                    "id": "obj-1",
                    "maxclass": "newobj",
                    "numinlets": 0,
                    "numoutlets": 1,
                    "outlettype": [ "" ],
                    "patching_rect": [ 50.0, 14.0, 28.0, 22.0 ],
                    "text": "in 1"
                }
            },
            {
                "box": {
                    "id": "obj-4",
                    "maxclass": "newobj",
                    "numinlets": 1,
                    "numoutlets": 0,
                    "patching_rect": [ 50.0, 492.0, 35.0, 22.0 ],
                    "text": "out 1"
                }
            }
        ],
        "lines": [
            {
                "patchline": {
                    "destination": [ "obj-5", 0 ],
                    "source": [ "obj-1", 0 ]
                }
            },
            {
                "patchline": {
                    "destination": [ "obj-5", 1 ],
                    "source": [ "obj-2", 0 ]
                }
            },
            {
                "patchline": {
                    "destination": [ "obj-3", 0 ],
                    "source": [ "obj-5", 1 ]
                }
            },
            {
                "patchline": {
                    "destination": [ "obj-4", 0 ],
                    "source": [ "obj-5", 0 ]
                }
            }
        ]
    }
}