{
	"patcher" : 	{
		"fileversion" : 1,
		"appversion" : 		{
			"major" : 9,
			"minor" : 0,
			"revision" : 6,
			"architecture" : "x64",
			"modernui" : 1
		}
,
		"classnamespace" : "box",
		"rect" : [ 59.0, 107.0, 1071.0, 720.0 ],
		"gridsize" : [ 15.0, 15.0 ],
		"boxes" : [ 			{
				"box" : 				{
					"id" : "obj-32",
					"linecount" : 5,
					"maxclass" : "message",
					"numinlets" : 2,
					"numoutlets" : 1,
					"outlettype" : [ "" ],
					"patching_rect" : [ 580.0, 396.0, 50.0, 77.0 ],
					"text" : "0. 0.385827 0.771654"
				}

			}
, 			{
				"box" : 				{
					"id" : "obj-30",
					"maxclass" : "newobj",
					"numinlets" : 2,
					"numoutlets" : 1,
					"outlettype" : [ "" ],
					"patching_rect" : [ 832.0, 399.0, 51.0, 22.0 ],
					"text" : "pak 0. 0"
				}

			}
, 			{
				"box" : 				{
					"id" : "obj-29",
					"maxclass" : "newobj",
					"numinlets" : 5,
					"numoutlets" : 5,
					"outlettype" : [ "", "", "", "", "" ],
					"patching_rect" : [ 737.0, 359.0, 198.0, 22.0 ],
					"text" : "route Target Formative S niRotation"
				}

			}
, 			{
				"box" : 				{
					"id" : "obj-28",
					"linecount" : 5,
					"maxclass" : "message",
					"numinlets" : 2,
					"numoutlets" : 1,
					"outlettype" : [ "" ],
					"patching_rect" : [ 692.0, 248.0, 50.0, 77.0 ],
					"text" : "0. 0.385827 0.771654 1."
				}

			}
, 			{
				"box" : 				{
					"id" : "obj-26",
					"maxclass" : "newobj",
					"numinlets" : 3,
					"numoutlets" : 1,
					"outlettype" : [ "" ],
					"patching_rect" : [ 573.0, 359.0, 65.0, 22.0 ],
					"text" : "liminalGrid"
				}

			}
, 			{
				"box" : 				{
					"id" : "obj-25",
					"maxclass" : "newobj",
					"numinlets" : 1,
					"numoutlets" : 1,
					"outlettype" : [ "" ],
					"patching_rect" : [ 852.0, 110.0, 173.0, 22.0 ],
					"text" : "loadmess patcher offset 0 -134"
				}

			}
, 			{
				"box" : 				{
					"bgmode" : 0,
					"border" : 0,
					"clickthrough" : 0,
					"enablehscroll" : 0,
					"enablevscroll" : 0,
					"id" : "obj-20",
					"lockeddragscroll" : 0,
					"lockedsize" : 0,
					"maxclass" : "bpatcher",
					"name" : "flowSwing_envelop.maxpat",
					"numinlets" : 2,
					"numoutlets" : 9,
					"offset" : [ 0.0, -134.0 ],
					"outlettype" : [ "signal", "multichannelsignal", "signal", "", "", "", "", "", "" ],
					"patching_rect" : [ 215.0, 143.0, 656.0, 93.0 ],
					"varname" : "flowSwing_envelop",
					"viewvisibility" : 1
				}

			}
, 			{
				"box" : 				{
					"arrows" : 2,
					"id" : "obj-12",
					"maxclass" : "live.line",
					"numinlets" : 1,
					"numoutlets" : 0,
					"patching_rect" : [ 176.0, 195.0, 37.0, 21.0 ]
				}

			}
, 			{
				"box" : 				{
					"id" : "obj-13",
					"maxclass" : "comment",
					"numinlets" : 1,
					"numoutlets" : 0,
					"patching_rect" : [ 49.0, 188.0, 125.0, 20.0 ],
					"presentation_linecount" : 7,
					"text" : "Rotation configuration"
				}

			}
, 			{
				"box" : 				{
					"arrows" : 2,
					"id" : "obj-10",
					"maxclass" : "live.line",
					"numinlets" : 1,
					"numoutlets" : 0,
					"patching_rect" : [ 176.0, 173.0, 37.0, 21.0 ]
				}

			}
, 			{
				"box" : 				{
					"id" : "obj-11",
					"maxclass" : "comment",
					"numinlets" : 1,
					"numoutlets" : 0,
					"patching_rect" : [ 141.0, 166.0, 33.0, 20.0 ],
					"text" : "Shift"
				}

			}
, 			{
				"box" : 				{
					"arrows" : 2,
					"id" : "obj-8",
					"maxclass" : "live.line",
					"numinlets" : 1,
					"numoutlets" : 0,
					"patching_rect" : [ 176.0, 216.0, 37.0, 21.0 ]
				}

			}
, 			{
				"box" : 				{
					"id" : "obj-9",
					"maxclass" : "comment",
					"numinlets" : 1,
					"numoutlets" : 0,
					"patching_rect" : [ 100.0, 209.0, 74.0, 20.0 ],
					"text" : "Target pulse"
				}

			}
, 			{
				"box" : 				{
					"arrows" : 2,
					"id" : "obj-7",
					"maxclass" : "live.line",
					"numinlets" : 1,
					"numoutlets" : 0,
					"patching_rect" : [ 176.0, 149.0, 37.0, 21.0 ]
				}

			}
, 			{
				"box" : 				{
					"id" : "obj-5",
					"maxclass" : "comment",
					"numinlets" : 1,
					"numoutlets" : 0,
					"patching_rect" : [ 80.0, 142.0, 94.0, 20.0 ],
					"text" : "Formative pulse"
				}

			}
, 			{
				"box" : 				{
					"id" : "obj-2",
					"linecount" : 6,
					"maxclass" : "comment",
					"numinlets" : 1,
					"numoutlets" : 0,
					"patching_rect" : [ 215.0, 33.0, 608.0, 89.0 ],
					"text" : "NI Grids are rhythmic structures that blend two isochronous pulses—called the Formative and Target pulses—by shifting the beats of the Formative pulse towards the Target pulse. This process is governed by a shift parameter S, creating a non-isochronous timing pattern with only two types of intervals: Long and Short. These intervals are distributed as evenly as possible across the cycle, and their arrangement can be rotated in different ways, defined by the rotation configuration R. NI Grids offer a compact and dynamic way to represent flexible rhythmic structures using just a few parameters"
				}

			}
 ],
		"lines" : [ 			{
				"patchline" : 				{
					"destination" : [ "obj-28", 1 ],
					"source" : [ "obj-20", 7 ]
				}

			}
, 			{
				"patchline" : 				{
					"destination" : [ "obj-29", 0 ],
					"source" : [ "obj-20", 8 ]
				}

			}
, 			{
				"patchline" : 				{
					"destination" : [ "obj-20", 1 ],
					"source" : [ "obj-25", 0 ]
				}

			}
, 			{
				"patchline" : 				{
					"destination" : [ "obj-32", 1 ],
					"source" : [ "obj-26", 0 ]
				}

			}
, 			{
				"patchline" : 				{
					"destination" : [ "obj-26", 1 ],
					"source" : [ "obj-29", 1 ]
				}

			}
, 			{
				"patchline" : 				{
					"destination" : [ "obj-26", 2 ],
					"source" : [ "obj-29", 0 ]
				}

			}
, 			{
				"patchline" : 				{
					"destination" : [ "obj-30", 1 ],
					"source" : [ "obj-29", 3 ]
				}

			}
, 			{
				"patchline" : 				{
					"destination" : [ "obj-30", 0 ],
					"source" : [ "obj-29", 2 ]
				}

			}
, 			{
				"patchline" : 				{
					"destination" : [ "obj-26", 0 ],
					"source" : [ "obj-30", 0 ]
				}

			}
 ],
		"parameters" : 		{
			"obj-20::obj-109" : [ "breakpoints", "breakpoints", 0 ],
			"obj-20::obj-114" : [ "clear_breakpoints", "clear_breakpoints", 0 ],
			"obj-20::obj-128" : [ "zoom", "zoom", 0 ],
			"obj-20::obj-16" : [ "title", "title", 0 ],
			"obj-20::obj-19" : [ "mute", "mute", 0 ],
			"obj-20::obj-22" : [ "lock", "lock", 0 ],
			"obj-20::obj-42" : [ "morph", "morph", 0 ],
			"obj-20::obj-45" : [ "S", "S", 0 ],
			"obj-20::obj-47" : [ "offset", "offset", 0 ],
			"obj-20::obj-48" : [ "niRotation", "niRotation", 0 ],
			"obj-20::obj-50" : [ "Formative", "Formative", 0 ],
			"obj-20::obj-51" : [ "Target", "Target", 0 ],
			"obj-20::obj-90" : [ "secondary_S_control", "secondary_S_control", 0 ],
			"obj-20::obj-91" : [ "hold", "hold", 0 ],
			"parameterbanks" : 			{
				"0" : 				{
					"index" : 0,
					"name" : "",
					"parameters" : [ "-", "-", "-", "-", "-", "-", "-", "-" ]
				}

			}
,
			"inherited_shortname" : 1
		}
,
		"dependency_cache" : [ 			{
				"name" : "EnvelopToShape.js",
				"bootpath" : "~/Documents/Max 9/Packages/FlowSwing-Max-MSP/javascript",
				"patcherrelativepath" : "../javascript",
				"type" : "TEXT",
				"implicit" : 1
			}
, 			{
				"name" : "EnvelopTomcTriggerBuffers.js",
				"bootpath" : "~/Documents/Max 9/Packages/FlowSwing-Max-MSP/javascript",
				"patcherrelativepath" : "../javascript",
				"type" : "TEXT",
				"implicit" : 1
			}
, 			{
				"name" : "complex_quantise.js",
				"bootpath" : "~/Documents/Max 9/Packages/FlowSwing-Max-MSP/javascript",
				"patcherrelativepath" : "../javascript",
				"type" : "TEXT",
				"implicit" : 1
			}
, 			{
				"name" : "drawDoubleGrid.js",
				"bootpath" : "~/Documents/Max 9/Packages/FlowSwing-Max-MSP/jsui",
				"patcherrelativepath" : "../jsui",
				"type" : "TEXT",
				"implicit" : 1
			}
, 			{
				"name" : "drawGrid.js",
				"bootpath" : "~/Documents/Max 9/Packages/FlowSwing-Max-MSP/jsui",
				"patcherrelativepath" : "../jsui",
				"type" : "TEXT",
				"implicit" : 1
			}
, 			{
				"name" : "euclidean_rhythm.js",
				"bootpath" : "~/Documents/Max 9/Packages/FlowSwing-Max-MSP/javascript",
				"patcherrelativepath" : "../javascript",
				"type" : "TEXT",
				"implicit" : 1
			}
, 			{
				"name" : "flowSwing_envelop.maxpat",
				"bootpath" : "~/Documents/Max 9/Packages/FlowSwing-Max-MSP/patchers",
				"patcherrelativepath" : "../patchers",
				"type" : "JSON",
				"implicit" : 1
			}
, 			{
				"name" : "forceLoopOnFunction.js",
				"bootpath" : "~/Documents/Max 9/Packages/FlowSwing-Max-MSP/javascript",
				"patcherrelativepath" : "../javascript",
				"type" : "TEXT",
				"implicit" : 1
			}
, 			{
				"name" : "liminalGrid.maxpat",
				"bootpath" : "~/Documents/Max 9/Packages/FlowSwing-Max-MSP/patchers",
				"patcherrelativepath" : "../patchers",
				"type" : "JSON",
				"implicit" : 1
			}
, 			{
				"name" : "mcTrigger.gendsp",
				"bootpath" : "~/Documents/Max 9/Packages/FlowSwing-Max-MSP/code",
				"patcherrelativepath" : "../code",
				"type" : "gDSP",
				"implicit" : 1
			}
, 			{
				"name" : "shift_markers.js",
				"bootpath" : "~/Documents/Max 9/Packages/FlowSwing-Max-MSP/javascript",
				"patcherrelativepath" : "../javascript",
				"type" : "TEXT",
				"implicit" : 1
			}
 ],
		"autosave" : 0
	}

}
