{
	"patcher" : 	{
		"fileversion" : 1,
		"appversion" : 		{
			"major" : 9,
			"minor" : 0,
			"revision" : 8,
			"architecture" : "x64",
			"modernui" : 1
		}
,
		"classnamespace" : "box",
		"rect" : [ 278.0, 110.0, 855.0, 716.0 ],
		"openinpresentation" : 1,
		"gridsize" : [ 15.0, 15.0 ],
		"boxes" : [ 			{
				"box" : 				{
					"id" : "obj-19",
					"maxclass" : "message",
					"numinlets" : 2,
					"numoutlets" : 1,
					"outlettype" : [ "" ],
					"patching_rect" : [ 447.0, 304.0, 50.0, 22.0 ],
					"text" : "clear"
				}

			}
, 			{
				"box" : 				{
					"bubble" : 1,
					"id" : "obj-25",
					"linecount" : 3,
					"maxclass" : "comment",
					"numinlets" : 1,
					"numoutlets" : 0,
					"patching_rect" : [ 682.0, 352.0, 118.0, 52.0 ],
					"presentation" : 1,
					"presentation_linecount" : 3,
					"presentation_rect" : [ 722.0, 364.0, 118.0, 52.0 ],
					"text" : "Ctrl+Click&Drag to zoom and pan vertically"
				}

			}
, 			{
				"box" : 				{
					"activebgcolor" : [ 0.737254901960784, 0.737254901960784, 0.737254901960784, 0.0 ],
					"activetextcolor" : [ 0.2, 0.2, 0.2, 1.0 ],
					"id" : "obj-17",
					"maxclass" : "live.text",
					"mode" : 0,
					"numinlets" : 1,
					"numoutlets" : 2,
					"outlettype" : [ "", "" ],
					"parameter_enable" : 1,
					"patching_rect" : [ 373.0, 284.0, 44.0, 15.0 ],
					"presentation" : 1,
					"presentation_rect" : [ 722.0, 535.0, 110.0, 15.0 ],
					"saved_attribute_attributes" : 					{
						"activebgcolor" : 						{
							"expression" : ""
						}
,
						"activetextcolor" : 						{
							"expression" : ""
						}
,
						"valueof" : 						{
							"parameter_enum" : [ "val1", "val2" ],
							"parameter_longname" : "live.text[1]",
							"parameter_mmax" : 1,
							"parameter_modmode" : 0,
							"parameter_shortname" : "live.text",
							"parameter_type" : 2
						}

					}
,
					"text" : "reset view",
					"transition" : 1,
					"varname" : "live.text[1]"
				}

			}
, 			{
				"box" : 				{
					"activebgcolor" : [ 0.737254901960784, 0.737254901960784, 0.737254901960784, 0.0 ],
					"activetextcolor" : [ 0.2, 0.2, 0.2, 1.0 ],
					"id" : "obj-12",
					"maxclass" : "live.text",
					"mode" : 0,
					"numinlets" : 1,
					"numoutlets" : 2,
					"outlettype" : [ "", "" ],
					"parameter_enable" : 1,
					"patching_rect" : [ 103.5, 284.0, 44.0, 15.0 ],
					"presentation" : 1,
					"presentation_rect" : [ 722.0, 425.0, 110.0, 15.0 ],
					"saved_attribute_attributes" : 					{
						"activebgcolor" : 						{
							"expression" : ""
						}
,
						"activetextcolor" : 						{
							"expression" : ""
						}
,
						"valueof" : 						{
							"parameter_enum" : [ "val1", "val2" ],
							"parameter_longname" : "live.text",
							"parameter_mmax" : 1,
							"parameter_modmode" : 0,
							"parameter_shortname" : "live.text",
							"parameter_type" : 2
						}

					}
,
					"text" : "reset view",
					"transition" : 1,
					"varname" : "live.text"
				}

			}
, 			{
				"box" : 				{
					"id" : "obj-15",
					"linecount" : 4,
					"maxclass" : "comment",
					"numinlets" : 1,
					"numoutlets" : 0,
					"patching_rect" : [ 313.0, 427.0, 107.0, 62.0 ],
					"text" : "The left outlet reports the y values of the step as a list."
				}

			}
, 			{
				"box" : 				{
					"id" : "obj-9",
					"linecount" : 4,
					"maxclass" : "comment",
					"numinlets" : 1,
					"numoutlets" : 0,
					"patching_rect" : [ 563.5, 433.0, 150.0, 62.0 ],
					"text" : "the right outlet of flowSwing.stepUI reports the value of the step been edited with the mouse."
				}

			}
, 			{
				"box" : 				{
					"fontface" : 1,
					"fontname" : "Consolas",
					"fontsize" : 12.0,
					"id" : "obj-81",
					"maxclass" : "comment",
					"numinlets" : 1,
					"numoutlets" : 0,
					"patching_rect" : [ 61.0, 806.0, 127.0, 21.0 ],
					"presentation" : 1,
					"presentation_rect" : [ 507.0, 637.0, 127.0, 21.0 ],
					"text" : "start audio here >"
				}

			}
, 			{
				"box" : 				{
					"id" : "obj-79",
					"maxclass" : "newobj",
					"numinlets" : 1,
					"numoutlets" : 1,
					"outlettype" : [ "" ],
					"patching_rect" : [ 600.0, 173.0, 85.0, 22.0 ],
					"text" : "vexpr $f1/255."
				}

			}
, 			{
				"box" : 				{
					"id" : "obj-78",
					"maxclass" : "message",
					"numinlets" : 2,
					"numoutlets" : 1,
					"outlettype" : [ "" ],
					"patching_rect" : [ 547.0, 196.0, 50.0, 22.0 ],
					"text" : "1. 0. 0."
				}

			}
, 			{
				"box" : 				{
					"id" : "obj-76",
					"maxclass" : "newobj",
					"numinlets" : 1,
					"numoutlets" : 2,
					"outlettype" : [ "list", "bang" ],
					"patching_rect" : [ 605.0, 146.0, 67.0, 22.0 ],
					"text" : "colorpicker"
				}

			}
, 			{
				"box" : 				{
					"id" : "obj-72",
					"linecount" : 2,
					"maxclass" : "comment",
					"numinlets" : 1,
					"numoutlets" : 0,
					"patching_rect" : [ 201.0, 541.0, 150.0, 34.0 ],
					"text" : "Q is modulated directly from gthe envelop values"
				}

			}
, 			{
				"box" : 				{
					"id" : "obj-70",
					"linecount" : 3,
					"maxclass" : "comment",
					"numinlets" : 1,
					"numoutlets" : 0,
					"patching_rect" : [ 457.0, 238.0, 153.0, 48.0 ],
					"text" : "The 3rd outlet from the left gives the current phase of the playback position."
				}

			}
, 			{
				"box" : 				{
					"id" : "obj-68",
					"linecount" : 4,
					"maxclass" : "comment",
					"numinlets" : 1,
					"numoutlets" : 0,
					"patching_rect" : [ 186.5, 231.0, 152.0, 62.0 ],
					"text" : "The second from right outlet is used to retrieve the actual time position for each event."
				}

			}
, 			{
				"box" : 				{
					"id" : "obj-66",
					"maxclass" : "comment",
					"numinlets" : 1,
					"numoutlets" : 0,
					"patching_rect" : [ 389.0, 592.0, 36.0, 20.0 ],
					"text" : "skew"
				}

			}
, 			{
				"box" : 				{
					"bgcolor" : [ 0.176470588235294, 0.176470588235294, 0.176470588235294, 0.0 ],
					"id" : "obj-10",
					"ignoreclick" : 1,
					"maxclass" : "multislider",
					"numinlets" : 1,
					"numoutlets" : 2,
					"orientation" : 0,
					"outlettype" : [ "", "" ],
					"parameter_enable" : 0,
					"patching_rect" : [ 608.0, 298.0, 38.0, 27.0 ],
					"presentation" : 1,
					"presentation_rect" : [ 113.0, 343.0, 594.0, 207.0 ],
					"setminmax" : [ 0.0, 1.0 ],
					"slidercolor" : [ 1.0, 1.0, 1.0, 0.16 ]
				}

			}
, 			{
				"box" : 				{
					"id" : "obj-64",
					"maxclass" : "newobj",
					"numinlets" : 1,
					"numoutlets" : 1,
					"outlettype" : [ "multichannelsignal" ],
					"patcher" : 					{
						"fileversion" : 1,
						"appversion" : 						{
							"major" : 9,
							"minor" : 0,
							"revision" : 8,
							"architecture" : "x64",
							"modernui" : 1
						}
,
						"classnamespace" : "box",
						"rect" : [ 814.0, 163.0, 312.0, 418.0 ],
						"gridsize" : [ 15.0, 15.0 ],
						"boxes" : [ 							{
								"box" : 								{
									"comment" : "",
									"id" : "obj-111",
									"index" : 1,
									"maxclass" : "inlet",
									"numinlets" : 0,
									"numoutlets" : 1,
									"outlettype" : [ "" ],
									"patching_rect" : [ 90.0, 35.0, 30.0, 30.0 ]
								}

							}
, 							{
								"box" : 								{
									"comment" : "",
									"id" : "obj-114",
									"index" : 1,
									"maxclass" : "outlet",
									"numinlets" : 1,
									"numoutlets" : 0,
									"patching_rect" : [ 91.0, 304.0, 30.0, 30.0 ]
								}

							}
, 							{
								"box" : 								{
									"id" : "obj-3",
									"maxclass" : "newobj",
									"numinlets" : 2,
									"numoutlets" : 2,
									"outlettype" : [ "", "" ],
									"patching_rect" : [ 90.0, 151.0, 37.0, 22.0 ],
									"text" : "zl.rev"
								}

							}
, 							{
								"box" : 								{
									"id" : "obj-2",
									"maxclass" : "newobj",
									"numinlets" : 1,
									"numoutlets" : 1,
									"outlettype" : [ "list" ],
									"patching_rect" : [ 90.0, 117.0, 66.0, 22.0 ],
									"text" : "listfunnel 1"
								}

							}
, 							{
								"box" : 								{
									"id" : "obj-21",
									"maxclass" : "newobj",
									"numinlets" : 1,
									"numoutlets" : 2,
									"outlettype" : [ "float", "int" ],
									"patching_rect" : [ 91.0, 185.0, 60.0, 22.0 ],
									"text" : "unpack f i"
								}

							}
, 							{
								"box" : 								{
									"id" : "obj-8",
									"maxclass" : "newobj",
									"numinlets" : 2,
									"numoutlets" : 2,
									"outlettype" : [ "setvalue", "int" ],
									"patching_rect" : [ 91.0, 231.0, 59.0, 22.0 ],
									"text" : "mc.target"
								}

							}
, 							{
								"box" : 								{
									"id" : "obj-7",
									"maxclass" : "newobj",
									"numinlets" : 1,
									"numoutlets" : 1,
									"outlettype" : [ "multichannelsignal" ],
									"patching_rect" : [ 91.0, 262.0, 128.0, 22.0 ],
									"text" : "mc.sig~ 0. @chans 16"
								}

							}
 ],
						"lines" : [ 							{
								"patchline" : 								{
									"destination" : [ "obj-2", 0 ],
									"source" : [ "obj-111", 0 ]
								}

							}
, 							{
								"patchline" : 								{
									"destination" : [ "obj-3", 0 ],
									"source" : [ "obj-2", 0 ]
								}

							}
, 							{
								"patchline" : 								{
									"destination" : [ "obj-8", 1 ],
									"source" : [ "obj-21", 1 ]
								}

							}
, 							{
								"patchline" : 								{
									"destination" : [ "obj-8", 0 ],
									"source" : [ "obj-21", 0 ]
								}

							}
, 							{
								"patchline" : 								{
									"destination" : [ "obj-21", 0 ],
									"source" : [ "obj-3", 0 ]
								}

							}
, 							{
								"patchline" : 								{
									"destination" : [ "obj-114", 0 ],
									"source" : [ "obj-7", 0 ]
								}

							}
, 							{
								"patchline" : 								{
									"destination" : [ "obj-7", 0 ],
									"source" : [ "obj-8", 0 ]
								}

							}
 ],
						"toolbaradditions" : [ "audiomute", "audiosolo" ]
					}
,
					"patching_rect" : [ 416.0, 401.0, 91.0, 22.0 ],
					"text" : "p \"to mc signal\""
				}

			}
, 			{
				"box" : 				{
					"id" : "obj-63",
					"maxclass" : "comment",
					"numinlets" : 1,
					"numoutlets" : 0,
					"patching_rect" : [ 242.0, 318.0, 39.0, 20.0 ],
					"presentation" : 1,
					"presentation_rect" : [ 39.0, 340.0, 39.0, 20.0 ],
					"text" : " Pitch",
					"textcolor" : [ 0.980392156862745, 0.980392156862745, 0.980392156862745, 1.0 ],
					"textjustification" : 2
				}

			}
, 			{
				"box" : 				{
					"id" : "obj-62",
					"maxclass" : "comment",
					"numinlets" : 1,
					"numoutlets" : 0,
					"patching_rect" : [ 469.0, 322.0, 41.0, 20.0 ],
					"presentation" : 1,
					"presentation_rect" : [ 37.0, 450.0, 41.0, 20.0 ],
					"text" : " Skew",
					"textcolor" : [ 0.980392156862745, 0.980392156862745, 0.980392156862745, 1.0 ],
					"textjustification" : 2
				}

			}
, 			{
				"box" : 				{
					"id" : "obj-59",
					"maxclass" : "newobj",
					"numinlets" : 1,
					"numoutlets" : 1,
					"outlettype" : [ "" ],
					"patcher" : 					{
						"fileversion" : 1,
						"appversion" : 						{
							"major" : 9,
							"minor" : 0,
							"revision" : 8,
							"architecture" : "x64",
							"modernui" : 1
						}
,
						"classnamespace" : "box",
						"rect" : [ 267.0, 380.0, 626.0, 356.0 ],
						"gridsize" : [ 15.0, 15.0 ],
						"boxes" : [ 							{
								"box" : 								{
									"id" : "obj-54",
									"maxclass" : "message",
									"numinlets" : 2,
									"numoutlets" : 1,
									"outlettype" : [ "" ],
									"patching_rect" : [ 85.0, 207.0, 387.0, 22.0 ],
									"text" : "setfloat 1, setrange -1. 1., setgrid -1. -0.75 -0.5 -0.25 0. 0.25 0.5 0.75 1."
								}

							}
, 							{
								"box" : 								{
									"comment" : "",
									"id" : "obj-3",
									"index" : 1,
									"maxclass" : "inlet",
									"numinlets" : 0,
									"numoutlets" : 1,
									"outlettype" : [ "" ],
									"patching_rect" : [ 50.0, 53.0, 30.0, 30.0 ]
								}

							}
, 							{
								"box" : 								{
									"id" : "obj-4",
									"maxclass" : "newobj",
									"numinlets" : 1,
									"numoutlets" : 1,
									"outlettype" : [ "bang" ],
									"patching_rect" : [ 50.0, 100.0, 58.0, 22.0 ],
									"text" : "loadbang"
								}

							}
, 							{
								"box" : 								{
									"id" : "obj-60",
									"maxclass" : "message",
									"numinlets" : 2,
									"numoutlets" : 1,
									"outlettype" : [ "" ],
									"patching_rect" : [ 50.0, 138.0, 740.0, 22.0 ],
									"text" : "bg 0.175 0.175 0.175 1., dotcolor 0.172549 0.819608 0.780392 1., activecolor 0. 1. 0.945098 1., guidecolor 1. 1. 1. 0.1, radius 5, margin 5"
								}

							}
, 							{
								"box" : 								{
									"comment" : "",
									"id" : "obj-37",
									"index" : 1,
									"maxclass" : "outlet",
									"numinlets" : 1,
									"numoutlets" : 0,
									"patching_rect" : [ 50.0, 262.0, 30.0, 30.0 ]
								}

							}
 ],
						"lines" : [ 							{
								"patchline" : 								{
									"destination" : [ "obj-4", 0 ],
									"source" : [ "obj-3", 0 ]
								}

							}
, 							{
								"patchline" : 								{
									"destination" : [ "obj-54", 0 ],
									"order" : 0,
									"source" : [ "obj-4", 0 ]
								}

							}
, 							{
								"patchline" : 								{
									"destination" : [ "obj-60", 0 ],
									"order" : 1,
									"source" : [ "obj-4", 0 ]
								}

							}
, 							{
								"patchline" : 								{
									"destination" : [ "obj-37", 0 ],
									"source" : [ "obj-54", 0 ]
								}

							}
, 							{
								"patchline" : 								{
									"destination" : [ "obj-37", 0 ],
									"source" : [ "obj-60", 0 ]
								}

							}
 ],
						"toolbaradditions" : [ "audiomute", "audiosolo" ]
					}
,
					"patching_rect" : [ 373.0, 316.0, 42.0, 22.0 ],
					"text" : "p init"
				}

			}
, 			{
				"box" : 				{
					"id" : "obj-44",
					"maxclass" : "newobj",
					"numinlets" : 1,
					"numoutlets" : 1,
					"outlettype" : [ "" ],
					"patching_rect" : [ 560.0, 377.0, 110.0, 22.0 ],
					"text" : "prepend setpitches"
				}

			}
, 			{
				"box" : 				{
					"id" : "obj-45",
					"maxclass" : "newobj",
					"numinlets" : 1,
					"numoutlets" : 3,
					"outlettype" : [ "", "", "" ],
					"patching_rect" : [ 560.0, 346.0, 98.0, 22.0 ],
					"restore" : [ -0.705263157894737, -0.431578947368421, 0.494736842105263, 0.642105263157895, -0.536842105263158, 0 ],
					"saved_attribute_attributes" : 					{
						"valueof" : 						{
							"parameter_invisible" : 1,
							"parameter_longname" : "skewvalues",
							"parameter_modmode" : 0,
							"parameter_shortname" : "skewvalues",
							"parameter_type" : 3
						}

					}
,
					"saved_object_attributes" : 					{
						"parameter_enable" : 1,
						"parameter_mappable" : 0
					}
,
					"text" : "pattr skewvalues",
					"varname" : "skewvalues"
				}

			}
, 			{
				"box" : 				{
					"id" : "obj-49",
					"maxclass" : "newobj",
					"numinlets" : 1,
					"numoutlets" : 1,
					"outlettype" : [ "" ],
					"patcher" : 					{
						"fileversion" : 1,
						"appversion" : 						{
							"major" : 9,
							"minor" : 0,
							"revision" : 8,
							"architecture" : "x64",
							"modernui" : 1
						}
,
						"classnamespace" : "box",
						"rect" : [ 808.0, 456.0, 252.0, 370.0 ],
						"gridsize" : [ 15.0, 15.0 ],
						"boxes" : [ 							{
								"box" : 								{
									"id" : "obj-50",
									"maxclass" : "newobj",
									"numinlets" : 1,
									"numoutlets" : 1,
									"outlettype" : [ " " ],
									"patching_rect" : [ 100.5, 138.0, 27.0, 22.0 ],
									"text" : "t \" \""
								}

							}
, 							{
								"box" : 								{
									"id" : "obj-45",
									"maxclass" : "newobj",
									"numinlets" : 3,
									"numoutlets" : 3,
									"outlettype" : [ "", "", "" ],
									"patching_rect" : [ 50.0, 100.0, 120.0, 22.0 ],
									"text" : "route active released"
								}

							}
, 							{
								"box" : 								{
									"id" : "obj-49",
									"maxclass" : "message",
									"numinlets" : 2,
									"numoutlets" : 1,
									"outlettype" : [ "" ],
									"patching_rect" : [ 50.0, 186.0, 50.0, 22.0 ],
									"text" : "set $1"
								}

							}
, 							{
								"box" : 								{
									"comment" : "",
									"id" : "obj-29",
									"index" : 1,
									"maxclass" : "inlet",
									"numinlets" : 0,
									"numoutlets" : 1,
									"outlettype" : [ "" ],
									"patching_rect" : [ 50.0, 40.0, 30.0, 30.0 ]
								}

							}
, 							{
								"box" : 								{
									"comment" : "",
									"id" : "obj-30",
									"index" : 1,
									"maxclass" : "outlet",
									"numinlets" : 1,
									"numoutlets" : 0,
									"patching_rect" : [ 50.0, 224.0, 30.0, 30.0 ]
								}

							}
 ],
						"lines" : [ 							{
								"patchline" : 								{
									"destination" : [ "obj-45", 0 ],
									"source" : [ "obj-29", 0 ]
								}

							}
, 							{
								"patchline" : 								{
									"destination" : [ "obj-49", 0 ],
									"source" : [ "obj-45", 0 ]
								}

							}
, 							{
								"patchline" : 								{
									"destination" : [ "obj-50", 0 ],
									"source" : [ "obj-45", 1 ]
								}

							}
, 							{
								"patchline" : 								{
									"destination" : [ "obj-30", 0 ],
									"source" : [ "obj-49", 0 ]
								}

							}
, 							{
								"patchline" : 								{
									"destination" : [ "obj-49", 0 ],
									"source" : [ "obj-50", 0 ]
								}

							}
 ],
						"toolbaradditions" : [ "audiomute", "audiosolo" ]
					}
,
					"patching_rect" : [ 504.0, 436.0, 56.0, 22.0 ],
					"text" : "p"
				}

			}
, 			{
				"box" : 				{
					"id" : "obj-51",
					"maxclass" : "comment",
					"numinlets" : 1,
					"numoutlets" : 0,
					"patching_rect" : [ 504.0, 475.0, 31.0, 20.0 ],
					"presentation" : 1,
					"presentation_rect" : [ 34.0, 474.0, 41.0, 20.0 ],
					"text" : " ",
					"textcolor" : [ 0.980392156862745, 0.980392156862745, 0.980392156862745, 1.0 ],
					"textjustification" : 2
				}

			}
, 			{
				"box" : 				{
					"border" : 0,
					"filename" : "flowSwingStepSequencerUI.js",
					"id" : "obj-52",
					"maxclass" : "jsui",
					"numinlets" : 1,
					"numoutlets" : 2,
					"outlettype" : [ "", "" ],
					"parameter_enable" : 0,
					"patching_rect" : [ 416.0, 349.0, 107.0, 44.0 ],
					"presentation" : 1,
					"presentation_rect" : [ 109.0, 450.0, 603.0, 100.0 ]
				}

			}
, 			{
				"box" : 				{
					"id" : "obj-11",
					"maxclass" : "newobj",
					"numinlets" : 1,
					"numoutlets" : 3,
					"outlettype" : [ "", "int", "int" ],
					"patching_rect" : [ 608.0, 269.0, 61.0, 22.0 ],
					"text" : "change 0."
				}

			}
, 			{
				"box" : 				{
					"id" : "obj-5",
					"maxclass" : "newobj",
					"numinlets" : 2,
					"numoutlets" : 1,
					"outlettype" : [ "float" ],
					"patching_rect" : [ 608.0, 239.0, 81.0, 22.0 ],
					"text" : "snapshot~ 20"
				}

			}
, 			{
				"box" : 				{
					"id" : "obj-43",
					"maxclass" : "newobj",
					"numinlets" : 1,
					"numoutlets" : 1,
					"outlettype" : [ "" ],
					"patching_rect" : [ 277.0, 379.0, 110.0, 22.0 ],
					"text" : "prepend setpitches"
				}

			}
, 			{
				"box" : 				{
					"id" : "obj-41",
					"maxclass" : "newobj",
					"numinlets" : 1,
					"numoutlets" : 3,
					"outlettype" : [ "", "", "" ],
					"patching_rect" : [ 277.0, 348.0, 74.0, 22.0 ],
					"restore" : [ 33, 41, 53, 70, 47, 64 ],
					"saved_attribute_attributes" : 					{
						"valueof" : 						{
							"parameter_invisible" : 1,
							"parameter_longname" : "pitches",
							"parameter_modmode" : 0,
							"parameter_shortname" : "pitches",
							"parameter_type" : 3
						}

					}
,
					"saved_object_attributes" : 					{
						"parameter_enable" : 1,
						"parameter_mappable" : 0
					}
,
					"text" : "pattr pitches",
					"varname" : "pitches"
				}

			}
, 			{
				"box" : 				{
					"id" : "obj-38",
					"maxclass" : "newobj",
					"numinlets" : 1,
					"numoutlets" : 1,
					"outlettype" : [ "" ],
					"patcher" : 					{
						"fileversion" : 1,
						"appversion" : 						{
							"major" : 9,
							"minor" : 0,
							"revision" : 8,
							"architecture" : "x64",
							"modernui" : 1
						}
,
						"classnamespace" : "box",
						"rect" : [ 492.0, 328.0, 465.0, 356.0 ],
						"gridsize" : [ 15.0, 15.0 ],
						"boxes" : [ 							{
								"box" : 								{
									"id" : "obj-2",
									"maxclass" : "message",
									"numinlets" : 2,
									"numoutlets" : 1,
									"outlettype" : [ "" ],
									"patching_rect" : [ 161.0, 86.0, 89.0, 22.0 ],
									"text" : "setrange 0 127"
								}

							}
, 							{
								"box" : 								{
									"comment" : "",
									"id" : "obj-3",
									"index" : 1,
									"maxclass" : "inlet",
									"numinlets" : 0,
									"numoutlets" : 1,
									"outlettype" : [ "" ],
									"patching_rect" : [ 161.0, 46.0, 30.0, 30.0 ]
								}

							}
, 							{
								"box" : 								{
									"id" : "obj-4",
									"maxclass" : "newobj",
									"numinlets" : 1,
									"numoutlets" : 1,
									"outlettype" : [ "bang" ],
									"patching_rect" : [ 50.0, 100.0, 58.0, 22.0 ],
									"text" : "loadbang"
								}

							}
, 							{
								"box" : 								{
									"id" : "obj-60",
									"linecount" : 3,
									"maxclass" : "message",
									"numinlets" : 2,
									"numoutlets" : 1,
									"outlettype" : [ "" ],
									"patching_rect" : [ 50.0, 138.0, 305.0, 50.0 ],
									"text" : "bg 0.175 0.175 0.175 1., dotcolor 0.909804 0.278431 0.278431 1., activecolor 1. 0 0 1., guidecolor 1. 1. 1. 0.1, radius 5, margin 5"
								}

							}
, 							{
								"box" : 								{
									"comment" : "",
									"id" : "obj-37",
									"index" : 1,
									"maxclass" : "outlet",
									"numinlets" : 1,
									"numoutlets" : 0,
									"patching_rect" : [ 50.0, 262.0, 30.0, 30.0 ]
								}

							}
 ],
						"lines" : [ 							{
								"patchline" : 								{
									"destination" : [ "obj-37", 0 ],
									"source" : [ "obj-2", 0 ]
								}

							}
, 							{
								"patchline" : 								{
									"destination" : [ "obj-2", 0 ],
									"source" : [ "obj-3", 0 ]
								}

							}
, 							{
								"patchline" : 								{
									"destination" : [ "obj-60", 0 ],
									"source" : [ "obj-4", 0 ]
								}

							}
, 							{
								"patchline" : 								{
									"destination" : [ "obj-37", 0 ],
									"source" : [ "obj-60", 0 ]
								}

							}
 ],
						"toolbaradditions" : [ "audiomute", "audiosolo" ]
					}
,
					"patching_rect" : [ 103.5, 317.0, 42.0, 22.0 ],
					"text" : "p init"
				}

			}
, 			{
				"box" : 				{
					"id" : "obj-35",
					"maxclass" : "newobj",
					"numinlets" : 1,
					"numoutlets" : 2,
					"outlettype" : [ "", "" ],
					"patcher" : 					{
						"fileversion" : 1,
						"appversion" : 						{
							"major" : 9,
							"minor" : 0,
							"revision" : 8,
							"architecture" : "x64",
							"modernui" : 1
						}
,
						"classnamespace" : "box",
						"rect" : [ 734.0, 178.0, 326.0, 648.0 ],
						"gridsize" : [ 15.0, 15.0 ],
						"boxes" : [ 							{
								"box" : 								{
									"id" : "obj-58",
									"maxclass" : "message",
									"numinlets" : 2,
									"numoutlets" : 1,
									"outlettype" : [ "" ],
									"patching_rect" : [ 105.0, 426.0, 50.0, 22.0 ],
									"text" : "set $1"
								}

							}
, 							{
								"box" : 								{
									"id" : "obj-50",
									"maxclass" : "newobj",
									"numinlets" : 1,
									"numoutlets" : 1,
									"outlettype" : [ " " ],
									"patching_rect" : [ 202.0, 304.0, 27.0, 22.0 ],
									"text" : "t \" \""
								}

							}
, 							{
								"box" : 								{
									"id" : "obj-45",
									"maxclass" : "newobj",
									"numinlets" : 3,
									"numoutlets" : 3,
									"outlettype" : [ "", "", "" ],
									"patching_rect" : [ 50.0, 100.0, 120.0, 22.0 ],
									"text" : "route active released"
								}

							}
, 							{
								"box" : 								{
									"id" : "obj-49",
									"maxclass" : "message",
									"numinlets" : 2,
									"numoutlets" : 1,
									"outlettype" : [ "" ],
									"patching_rect" : [ 50.0, 426.0, 50.0, 22.0 ],
									"text" : "set $1"
								}

							}
, 							{
								"box" : 								{
									"comment" : "",
									"id" : "obj-29",
									"index" : 1,
									"maxclass" : "inlet",
									"numinlets" : 0,
									"numoutlets" : 1,
									"outlettype" : [ "" ],
									"patching_rect" : [ 50.0, 40.0, 30.0, 30.0 ]
								}

							}
, 							{
								"box" : 								{
									"comment" : "",
									"id" : "obj-30",
									"index" : 1,
									"maxclass" : "outlet",
									"numinlets" : 1,
									"numoutlets" : 0,
									"patching_rect" : [ 50.0, 508.0, 30.0, 30.0 ]
								}

							}
, 							{
								"box" : 								{
									"comment" : "",
									"id" : "obj-34",
									"index" : 2,
									"maxclass" : "outlet",
									"numinlets" : 1,
									"numoutlets" : 0,
									"patching_rect" : [ 105.0, 508.0, 30.0, 30.0 ]
								}

							}
, 							{
								"box" : 								{
									"id" : "obj-6",
									"maxclass" : "newobj",
									"numinlets" : 2,
									"numoutlets" : 1,
									"outlettype" : [ "int" ],
									"patching_rect" : [ 136.0, 304.0, 29.5, 22.0 ],
									"text" : "- 2"
								}

							}
, 							{
								"box" : 								{
									"id" : "obj-5",
									"maxclass" : "newobj",
									"numinlets" : 2,
									"numoutlets" : 2,
									"outlettype" : [ "", "" ],
									"patching_rect" : [ 50.0, 304.0, 77.0, 22.0 ],
									"text" : "route symbol"
								}

							}
, 							{
								"box" : 								{
									"id" : "obj-3",
									"maxclass" : "newobj",
									"numinlets" : 2,
									"numoutlets" : 1,
									"outlettype" : [ "int" ],
									"patching_rect" : [ 136.0, 220.0, 29.5, 22.0 ],
									"text" : "/ 12"
								}

							}
, 							{
								"box" : 								{
									"id" : "obj-2",
									"maxclass" : "newobj",
									"numinlets" : 2,
									"numoutlets" : 1,
									"outlettype" : [ "int" ],
									"patching_rect" : [ 50.0, 220.0, 37.0, 22.0 ],
									"text" : "% 12"
								}

							}
, 							{
								"box" : 								{
									"coll_data" : 									{
										"count" : 12,
										"data" : [ 											{
												"key" : 0,
												"value" : [ "C" ]
											}
, 											{
												"key" : 1,
												"value" : [ "Db" ]
											}
, 											{
												"key" : 2,
												"value" : [ "D" ]
											}
, 											{
												"key" : 3,
												"value" : [ "Eb" ]
											}
, 											{
												"key" : 4,
												"value" : [ "E" ]
											}
, 											{
												"key" : 5,
												"value" : [ "F" ]
											}
, 											{
												"key" : 6,
												"value" : [ "Gb" ]
											}
, 											{
												"key" : 7,
												"value" : [ "G" ]
											}
, 											{
												"key" : 8,
												"value" : [ "Ab" ]
											}
, 											{
												"key" : 9,
												"value" : [ "A" ]
											}
, 											{
												"key" : 10,
												"value" : [ "Bb" ]
											}
, 											{
												"key" : 11,
												"value" : [ "B" ]
											}
 ]
									}
,
									"id" : "obj-1",
									"maxclass" : "newobj",
									"numinlets" : 1,
									"numoutlets" : 4,
									"outlettype" : [ "", "", "", "" ],
									"patching_rect" : [ 50.0, 260.0, 50.5, 22.0 ],
									"saved_object_attributes" : 									{
										"embed" : 1,
										"precision" : 6
									}
,
									"text" : "coll"
								}

							}
, 							{
								"box" : 								{
									"fontname" : "Arial",
									"fontsize" : 12.0,
									"id" : "obj-10",
									"maxclass" : "comment",
									"numinlets" : 1,
									"numoutlets" : 0,
									"patching_rect" : [ 136.0, 459.0, 78.0, 20.0 ],
									"text" : "Note name",
									"textcolor" : [ 0.0, 0.0, 0.0, 1.0 ]
								}

							}
, 							{
								"box" : 								{
									"fontname" : "Arial",
									"fontsize" : 12.0,
									"id" : "obj-9",
									"maxclass" : "comment",
									"numinlets" : 1,
									"numoutlets" : 0,
									"patching_rect" : [ 28.25, 153.0, 94.0, 20.0 ],
									"text" : "Note number",
									"textcolor" : [ 0.0, 0.0, 0.0, 1.0 ]
								}

							}
 ],
						"lines" : [ 							{
								"patchline" : 								{
									"destination" : [ "obj-5", 0 ],
									"source" : [ "obj-1", 0 ]
								}

							}
, 							{
								"patchline" : 								{
									"destination" : [ "obj-1", 0 ],
									"source" : [ "obj-2", 0 ]
								}

							}
, 							{
								"patchline" : 								{
									"destination" : [ "obj-45", 0 ],
									"source" : [ "obj-29", 0 ]
								}

							}
, 							{
								"patchline" : 								{
									"destination" : [ "obj-6", 0 ],
									"source" : [ "obj-3", 0 ]
								}

							}
, 							{
								"patchline" : 								{
									"destination" : [ "obj-2", 0 ],
									"order" : 1,
									"source" : [ "obj-45", 0 ]
								}

							}
, 							{
								"patchline" : 								{
									"destination" : [ "obj-3", 0 ],
									"order" : 0,
									"source" : [ "obj-45", 0 ]
								}

							}
, 							{
								"patchline" : 								{
									"destination" : [ "obj-50", 0 ],
									"source" : [ "obj-45", 1 ]
								}

							}
, 							{
								"patchline" : 								{
									"destination" : [ "obj-30", 0 ],
									"source" : [ "obj-49", 0 ]
								}

							}
, 							{
								"patchline" : 								{
									"destination" : [ "obj-49", 0 ],
									"source" : [ "obj-5", 0 ]
								}

							}
, 							{
								"patchline" : 								{
									"destination" : [ "obj-49", 0 ],
									"order" : 1,
									"source" : [ "obj-50", 0 ]
								}

							}
, 							{
								"patchline" : 								{
									"destination" : [ "obj-58", 0 ],
									"order" : 0,
									"source" : [ "obj-50", 0 ]
								}

							}
, 							{
								"patchline" : 								{
									"destination" : [ "obj-34", 0 ],
									"source" : [ "obj-58", 0 ]
								}

							}
, 							{
								"patchline" : 								{
									"destination" : [ "obj-58", 0 ],
									"source" : [ "obj-6", 0 ]
								}

							}
 ],
						"toolbaradditions" : [ "audiomute", "audiosolo" ]
					}
,
					"patching_rect" : [ 221.0, 438.0, 56.0, 22.0 ],
					"text" : "p"
				}

			}
, 			{
				"box" : 				{
					"id" : "obj-28",
					"maxclass" : "newobj",
					"numinlets" : 2,
					"numoutlets" : 1,
					"outlettype" : [ "" ],
					"patcher" : 					{
						"fileversion" : 1,
						"appversion" : 						{
							"major" : 9,
							"minor" : 0,
							"revision" : 8,
							"architecture" : "x64",
							"modernui" : 1
						}
,
						"classnamespace" : "box",
						"rect" : [ 228.0, 226.0, 510.0, 488.0 ],
						"gridsize" : [ 15.0, 15.0 ],
						"boxes" : [ 							{
								"box" : 								{
									"id" : "obj-12",
									"linecount" : 2,
									"maxclass" : "comment",
									"numinlets" : 1,
									"numoutlets" : 0,
									"patching_rect" : [ 23.0, 150.0, 121.0, 34.0 ],
									"text" : "position of all events (active and silent)"
								}

							}
, 							{
								"box" : 								{
									"id" : "obj-7",
									"linecount" : 2,
									"maxclass" : "comment",
									"numinlets" : 1,
									"numoutlets" : 0,
									"patching_rect" : [ 322.0, 231.0, 150.0, 34.0 ],
									"text" : "get the indices of the active breakpoints"
								}

							}
, 							{
								"box" : 								{
									"id" : "obj-4",
									"linecount" : 2,
									"maxclass" : "comment",
									"numinlets" : 1,
									"numoutlets" : 0,
									"patching_rect" : [ 322.0, 150.0, 117.0, 34.0 ],
									"text" : "get the silent state of each breakpoint"
								}

							}
, 							{
								"box" : 								{
									"id" : "obj-2",
									"linecount" : 3,
									"maxclass" : "comment",
									"numinlets" : 1,
									"numoutlets" : 0,
									"patching_rect" : [ 211.5, 304.0, 150.0, 48.0 ],
									"text" : "The silent breakpoints are removed from the list of time values"
								}

							}
, 							{
								"box" : 								{
									"id" : "obj-53",
									"maxclass" : "newobj",
									"numinlets" : 2,
									"numoutlets" : 2,
									"outlettype" : [ "", "" ],
									"patching_rect" : [ 261.0, 167.0, 55.0, 22.0 ],
									"text" : "zl.ecils 1"
								}

							}
, 							{
								"box" : 								{
									"id" : "obj-41",
									"maxclass" : "newobj",
									"numinlets" : 2,
									"numoutlets" : 2,
									"outlettype" : [ "", "" ],
									"patching_rect" : [ 82.5, 237.0, 55.0, 22.0 ],
									"text" : "zl.ecils 1"
								}

							}
, 							{
								"box" : 								{
									"id" : "obj-38",
									"maxclass" : "newobj",
									"numinlets" : 2,
									"numoutlets" : 2,
									"outlettype" : [ "", "" ],
									"patching_rect" : [ 83.0, 280.0, 197.0, 22.0 ],
									"text" : "zl.indexmap"
								}

							}
, 							{
								"box" : 								{
									"id" : "obj-37",
									"maxclass" : "newobj",
									"numinlets" : 2,
									"numoutlets" : 1,
									"outlettype" : [ "int" ],
									"patching_rect" : [ 261.0, 220.0, 29.5, 22.0 ],
									"text" : "- 1"
								}

							}
, 							{
								"box" : 								{
									"id" : "obj-36",
									"maxclass" : "newobj",
									"numinlets" : 2,
									"numoutlets" : 2,
									"outlettype" : [ "", "" ],
									"patching_rect" : [ 261.0, 245.0, 51.0, 22.0 ],
									"text" : "zl.group"
								}

							}
, 							{
								"box" : 								{
									"id" : "obj-35",
									"maxclass" : "newobj",
									"numinlets" : 2,
									"numoutlets" : 2,
									"outlettype" : [ "", "" ],
									"patching_rect" : [ 261.0, 196.0, 50.0, 22.0 ],
									"text" : "zl.sub 0"
								}

							}
, 							{
								"box" : 								{
									"id" : "obj-25",
									"maxclass" : "newobj",
									"numinlets" : 2,
									"numoutlets" : 2,
									"outlettype" : [ "", "" ],
									"patching_rect" : [ 157.0, 108.0, 101.0, 22.0 ],
									"text" : "route breakpoints"
								}

							}
, 							{
								"box" : 								{
									"id" : "obj-5",
									"maxclass" : "newobj",
									"numinlets" : 1,
									"numoutlets" : 4,
									"outlettype" : [ "", "", "", "" ],
									"patching_rect" : [ 157.0, 137.0, 123.0, 22.0 ],
									"text" : "breakpointsDictToList"
								}

							}
, 							{
								"box" : 								{
									"id" : "obj-10",
									"maxclass" : "newobj",
									"numinlets" : 1,
									"numoutlets" : 1,
									"outlettype" : [ "" ],
									"patching_rect" : [ 82.5, 310.0, 101.0, 22.0 ],
									"text" : "prepend settimes"
								}

							}
, 							{
								"box" : 								{
									"comment" : "",
									"id" : "obj-9",
									"index" : 2,
									"maxclass" : "inlet",
									"numinlets" : 0,
									"numoutlets" : 1,
									"outlettype" : [ "" ],
									"patching_rect" : [ 157.0, 48.0, 30.0, 30.0 ]
								}

							}
, 							{
								"box" : 								{
									"comment" : "",
									"id" : "obj-11",
									"index" : 1,
									"maxclass" : "inlet",
									"numinlets" : 0,
									"numoutlets" : 1,
									"outlettype" : [ "" ],
									"patching_rect" : [ 82.5, 184.0, 30.0, 30.0 ]
								}

							}
, 							{
								"box" : 								{
									"comment" : "",
									"id" : "obj-27",
									"index" : 1,
									"maxclass" : "outlet",
									"numinlets" : 1,
									"numoutlets" : 0,
									"patching_rect" : [ 82.5, 392.0, 30.0, 30.0 ]
								}

							}
 ],
						"lines" : [ 							{
								"patchline" : 								{
									"destination" : [ "obj-27", 0 ],
									"source" : [ "obj-10", 0 ]
								}

							}
, 							{
								"patchline" : 								{
									"destination" : [ "obj-41", 0 ],
									"source" : [ "obj-11", 0 ]
								}

							}
, 							{
								"patchline" : 								{
									"destination" : [ "obj-5", 0 ],
									"source" : [ "obj-25", 0 ]
								}

							}
, 							{
								"patchline" : 								{
									"destination" : [ "obj-36", 1 ],
									"source" : [ "obj-35", 1 ]
								}

							}
, 							{
								"patchline" : 								{
									"destination" : [ "obj-37", 0 ],
									"source" : [ "obj-35", 0 ]
								}

							}
, 							{
								"patchline" : 								{
									"destination" : [ "obj-38", 1 ],
									"source" : [ "obj-36", 0 ]
								}

							}
, 							{
								"patchline" : 								{
									"destination" : [ "obj-36", 0 ],
									"source" : [ "obj-37", 0 ]
								}

							}
, 							{
								"patchline" : 								{
									"destination" : [ "obj-10", 0 ],
									"source" : [ "obj-38", 0 ]
								}

							}
, 							{
								"patchline" : 								{
									"destination" : [ "obj-38", 0 ],
									"source" : [ "obj-41", 0 ]
								}

							}
, 							{
								"patchline" : 								{
									"destination" : [ "obj-53", 0 ],
									"source" : [ "obj-5", 3 ]
								}

							}
, 							{
								"patchline" : 								{
									"destination" : [ "obj-35", 0 ],
									"source" : [ "obj-53", 0 ]
								}

							}
, 							{
								"patchline" : 								{
									"destination" : [ "obj-25", 0 ],
									"source" : [ "obj-9", 0 ]
								}

							}
 ],
						"toolbaradditions" : [ "audiomute", "audiosolo" ]
					}
,
					"patching_rect" : [ 133.0, 242.0, 48.0, 22.0 ],
					"text" : "p"
				}

			}
, 			{
				"box" : 				{
					"id" : "obj-57",
					"maxclass" : "comment",
					"numinlets" : 1,
					"numoutlets" : 0,
					"patching_rect" : [ 258.0, 477.0, 19.0, 20.0 ],
					"presentation" : 1,
					"presentation_rect" : [ 55.0, 362.0, 23.0, 20.0 ],
					"text" : " ",
					"textcolor" : [ 0.980392156862745, 0.980392156862745, 0.980392156862745, 1.0 ],
					"textjustification" : 2
				}

			}
, 			{
				"box" : 				{
					"id" : "obj-48",
					"maxclass" : "comment",
					"numinlets" : 1,
					"numoutlets" : 0,
					"patching_rect" : [ 221.0, 477.0, 31.0, 20.0 ],
					"presentation" : 1,
					"presentation_rect" : [ 45.0, 362.0, 27.0, 20.0 ],
					"text" : " ",
					"textcolor" : [ 0.980392156862745, 0.980392156862745, 0.980392156862745, 1.0 ]
				}

			}
, 			{
				"box" : 				{
					"id" : "obj-13",
					"maxclass" : "newobj",
					"numinlets" : 6,
					"numoutlets" : 1,
					"outlettype" : [ "signal" ],
					"patching_rect" : [ 190.0, 517.0, 97.0, 22.0 ],
					"text" : "scale~ 0. 1. 0. 1."
				}

			}
, 			{
				"box" : 				{
					"id" : "obj-7",
					"maxclass" : "newobj",
					"numinlets" : 1,
					"numoutlets" : 1,
					"outlettype" : [ "bang" ],
					"patching_rect" : [ 271.0, 151.0, 58.0, 22.0 ],
					"text" : "loadbang"
				}

			}
, 			{
				"box" : 				{
					"id" : "obj-6",
					"maxclass" : "message",
					"numinlets" : 2,
					"numoutlets" : 1,
					"outlettype" : [ "" ],
					"patching_rect" : [ 271.0, 182.0, 57.0, 22.0 ],
					"text" : "chans 32"
				}

			}
, 			{
				"box" : 				{
					"id" : "obj-26",
					"linecount" : 5,
					"maxclass" : "comment",
					"numinlets" : 1,
					"numoutlets" : 0,
					"patching_rect" : [ 284.0, 624.0, 186.0, 75.0 ],
					"text" : "Pitch and skew from flowSwing.stepUI are converted into mc signals: frequency in Hz and skew between 0 and 1 for each voice/breakpoint."
				}

			}
, 			{
				"box" : 				{
					"id" : "obj-24",
					"linecount" : 3,
					"maxclass" : "comment",
					"numinlets" : 1,
					"numoutlets" : 0,
					"patching_rect" : [ 9.0, 46.0, 675.0, 48.0 ],
					"presentation" : 1,
					"presentation_linecount" : 3,
					"presentation_rect" : [ 9.0, 46.0, 675.0, 48.0 ],
					"text" : "This example demonstrates the flowSwing.stepUI jsui object. The stepUI can be paired with a FlowSwing.envelop instance to control different sequencing parameters. In this setup, amplitude and timing are shaped by the FlowSwing.envelop, while pitch and skew values are drawn and edited directly in the stepUI interface."
				}

			}
, 			{
				"box" : 				{
					"fontsize" : 24.0,
					"id" : "obj-22",
					"maxclass" : "comment",
					"numinlets" : 1,
					"numoutlets" : 0,
					"patching_rect" : [ 8.5, 6.0, 311.0, 34.0 ],
					"presentation" : 1,
					"presentation_rect" : [ 8.5, 6.0, 311.0, 34.0 ],
					"text" : "The flowSwing.stepUI object"
				}

			}
, 			{
				"box" : 				{
					"id" : "obj-14",
					"linecount" : 2,
					"maxclass" : "comment",
					"numinlets" : 1,
					"numoutlets" : 0,
					"patching_rect" : [ 92.0, 585.0, 46.0, 34.0 ],
					"text" : "pitch (in Hz)"
				}

			}
, 			{
				"box" : 				{
					"id" : "obj-115",
					"maxclass" : "newobj",
					"numinlets" : 1,
					"numoutlets" : 1,
					"outlettype" : [ "multichannelsignal" ],
					"patcher" : 					{
						"fileversion" : 1,
						"appversion" : 						{
							"major" : 9,
							"minor" : 0,
							"revision" : 8,
							"architecture" : "x64",
							"modernui" : 1
						}
,
						"classnamespace" : "box",
						"rect" : [ 814.0, 163.0, 312.0, 418.0 ],
						"gridsize" : [ 15.0, 15.0 ],
						"boxes" : [ 							{
								"box" : 								{
									"comment" : "",
									"id" : "obj-111",
									"index" : 1,
									"maxclass" : "inlet",
									"numinlets" : 0,
									"numoutlets" : 1,
									"outlettype" : [ "" ],
									"patching_rect" : [ 90.0, 35.0, 30.0, 30.0 ]
								}

							}
, 							{
								"box" : 								{
									"comment" : "",
									"id" : "obj-114",
									"index" : 1,
									"maxclass" : "outlet",
									"numinlets" : 1,
									"numoutlets" : 0,
									"patching_rect" : [ 91.0, 304.0, 30.0, 30.0 ]
								}

							}
, 							{
								"box" : 								{
									"id" : "obj-3",
									"maxclass" : "newobj",
									"numinlets" : 2,
									"numoutlets" : 2,
									"outlettype" : [ "", "" ],
									"patching_rect" : [ 90.0, 151.0, 37.0, 22.0 ],
									"text" : "zl.rev"
								}

							}
, 							{
								"box" : 								{
									"id" : "obj-2",
									"maxclass" : "newobj",
									"numinlets" : 1,
									"numoutlets" : 1,
									"outlettype" : [ "list" ],
									"patching_rect" : [ 90.0, 117.0, 66.0, 22.0 ],
									"text" : "listfunnel 1"
								}

							}
, 							{
								"box" : 								{
									"id" : "obj-1",
									"maxclass" : "newobj",
									"numinlets" : 1,
									"numoutlets" : 1,
									"outlettype" : [ "" ],
									"patching_rect" : [ 90.0, 83.0, 32.0, 22.0 ],
									"text" : "mtof"
								}

							}
, 							{
								"box" : 								{
									"id" : "obj-21",
									"maxclass" : "newobj",
									"numinlets" : 1,
									"numoutlets" : 2,
									"outlettype" : [ "int", "int" ],
									"patching_rect" : [ 91.0, 185.0, 59.0, 22.0 ],
									"text" : "unpack i i"
								}

							}
, 							{
								"box" : 								{
									"id" : "obj-8",
									"maxclass" : "newobj",
									"numinlets" : 2,
									"numoutlets" : 2,
									"outlettype" : [ "setvalue", "int" ],
									"patching_rect" : [ 91.0, 231.0, 59.0, 22.0 ],
									"text" : "mc.target"
								}

							}
, 							{
								"box" : 								{
									"id" : "obj-7",
									"maxclass" : "newobj",
									"numinlets" : 1,
									"numoutlets" : 1,
									"outlettype" : [ "multichannelsignal" ],
									"patching_rect" : [ 91.0, 262.0, 138.0, 22.0 ],
									"text" : "mc.sig~ 220 @chans 16"
								}

							}
 ],
						"lines" : [ 							{
								"patchline" : 								{
									"destination" : [ "obj-2", 0 ],
									"source" : [ "obj-1", 0 ]
								}

							}
, 							{
								"patchline" : 								{
									"destination" : [ "obj-1", 0 ],
									"source" : [ "obj-111", 0 ]
								}

							}
, 							{
								"patchline" : 								{
									"destination" : [ "obj-3", 0 ],
									"source" : [ "obj-2", 0 ]
								}

							}
, 							{
								"patchline" : 								{
									"destination" : [ "obj-8", 1 ],
									"source" : [ "obj-21", 1 ]
								}

							}
, 							{
								"patchline" : 								{
									"destination" : [ "obj-8", 0 ],
									"source" : [ "obj-21", 0 ]
								}

							}
, 							{
								"patchline" : 								{
									"destination" : [ "obj-21", 0 ],
									"source" : [ "obj-3", 0 ]
								}

							}
, 							{
								"patchline" : 								{
									"destination" : [ "obj-114", 0 ],
									"source" : [ "obj-7", 0 ]
								}

							}
, 							{
								"patchline" : 								{
									"destination" : [ "obj-7", 0 ],
									"source" : [ "obj-8", 0 ]
								}

							}
 ],
						"toolbaradditions" : [ "audiomute", "audiosolo" ]
					}
,
					"patching_rect" : [ 133.0, 401.0, 91.0, 22.0 ],
					"text" : "p \"to mc signal\""
				}

			}
, 			{
				"box" : 				{
					"id" : "obj-102",
					"linecount" : 3,
					"maxclass" : "comment",
					"numinlets" : 1,
					"numoutlets" : 0,
					"patching_rect" : [ 88.0, 98.0, 60.0, 48.0 ],
					"presentation" : 1,
					"presentation_rect" : [ 134.0, 97.0, 136.0, 20.0 ],
					"text" : "tempo (cycles / minute):"
				}

			}
, 			{
				"box" : 				{
					"id" : "obj-90",
					"maxclass" : "live.numbox",
					"numinlets" : 1,
					"numoutlets" : 2,
					"outlettype" : [ "", "float" ],
					"parameter_enable" : 1,
					"patching_rect" : [ 139.0, 120.0, 44.0, 15.0 ],
					"presentation" : 1,
					"presentation_rect" : [ 274.0, 100.0, 44.0, 15.0 ],
					"saved_attribute_attributes" : 					{
						"valueof" : 						{
							"parameter_longname" : "CPM",
							"parameter_modmode" : 3,
							"parameter_shortname" : "CPM",
							"parameter_type" : 0,
							"parameter_unitstyle" : 1
						}

					}
,
					"varname" : "CPM"
				}

			}
, 			{
				"box" : 				{
					"id" : "obj-33",
					"lastchannelcount" : 0,
					"maxclass" : "live.gain~",
					"numinlets" : 2,
					"numoutlets" : 5,
					"outlettype" : [ "signal", "signal", "", "float", "list" ],
					"parameter_enable" : 1,
					"patching_rect" : [ 60.0, 682.0, 110.0, 53.0 ],
					"presentation" : 1,
					"presentation_rect" : [ 449.0, 557.0, 48.0, 119.0 ],
					"saved_attribute_attributes" : 					{
						"valueof" : 						{
							"parameter_linknames" : 1,
							"parameter_longname" : "gain",
							"parameter_mmax" : 6.0,
							"parameter_mmin" : -70.0,
							"parameter_modmode" : 3,
							"parameter_shortname" : "gain",
							"parameter_type" : 0,
							"parameter_unitstyle" : 4
						}

					}
,
					"showname" : 0,
					"varname" : "gain"
				}

			}
, 			{
				"box" : 				{
					"id" : "obj-32",
					"local" : 1,
					"maxclass" : "ezdac~",
					"numinlets" : 2,
					"numoutlets" : 0,
					"patching_rect" : [ 60.0, 751.0, 45.0, 45.0 ],
					"presentation" : 1,
					"presentation_rect" : [ 636.0, 625.0, 45.0, 45.0 ]
				}

			}
, 			{
				"box" : 				{
					"id" : "obj-31",
					"maxclass" : "newobj",
					"numinlets" : 3,
					"numoutlets" : 1,
					"outlettype" : [ "signal" ],
					"patcher" : 					{
						"fileversion" : 1,
						"appversion" : 						{
							"major" : 9,
							"minor" : 0,
							"revision" : 8,
							"architecture" : "x64",
							"modernui" : 1
						}
,
						"classnamespace" : "box",
						"rect" : [ 392.0, 286.0, 375.0, 341.0 ],
						"gridsize" : [ 15.0, 15.0 ],
						"boxes" : [ 							{
								"box" : 								{
									"id" : "obj-2",
									"maxclass" : "newobj",
									"numinlets" : 2,
									"numoutlets" : 1,
									"outlettype" : [ "float" ],
									"patching_rect" : [ 106.0, 100.0, 32.0, 22.0 ],
									"text" : "/ 60."
								}

							}
, 							{
								"box" : 								{
									"comment" : "tempo in cycles per minute",
									"id" : "obj-1",
									"index" : 2,
									"maxclass" : "inlet",
									"numinlets" : 0,
									"numoutlets" : 1,
									"outlettype" : [ "" ],
									"patching_rect" : [ 106.0, 40.0, 30.0, 30.0 ]
								}

							}
, 							{
								"box" : 								{
									"id" : "obj-59",
									"maxclass" : "newobj",
									"numinlets" : 1,
									"numoutlets" : 1,
									"outlettype" : [ "bang" ],
									"patching_rect" : [ 211.0, 148.0, 25.0, 22.0 ],
									"text" : "b 1"
								}

							}
, 							{
								"box" : 								{
									"id" : "obj-57",
									"maxclass" : "newobj",
									"numinlets" : 2,
									"numoutlets" : 1,
									"outlettype" : [ "float" ],
									"patching_rect" : [ 50.0, 180.0, 29.5, 22.0 ],
									"text" : "* 1."
								}

							}
, 							{
								"box" : 								{
									"id" : "obj-47",
									"maxclass" : "newobj",
									"numinlets" : 2,
									"numoutlets" : 1,
									"outlettype" : [ "" ],
									"patching_rect" : [ 50.0, 145.0, 75.0, 22.0 ],
									"text" : "pak 0. 0.666"
								}

							}
, 							{
								"box" : 								{
									"id" : "obj-25",
									"maxclass" : "message",
									"numinlets" : 2,
									"numoutlets" : 1,
									"outlettype" : [ "" ],
									"patching_rect" : [ 211.0, 180.0, 29.5, 22.0 ],
									"text" : "0"
								}

							}
, 							{
								"box" : 								{
									"id" : "obj-20",
									"maxclass" : "newobj",
									"numinlets" : 2,
									"numoutlets" : 1,
									"outlettype" : [ "signal" ],
									"patching_rect" : [ 50.0, 216.0, 180.25, 22.0 ],
									"text" : "phasor~"
								}

							}
, 							{
								"box" : 								{
									"comment" : "Play/Pause (1/0)",
									"id" : "obj-12",
									"index" : 1,
									"maxclass" : "inlet",
									"numinlets" : 0,
									"numoutlets" : 1,
									"outlettype" : [ "" ],
									"patching_rect" : [ 50.0, 40.0, 30.0, 30.0 ]
								}

							}
, 							{
								"box" : 								{
									"comment" : "rewind",
									"id" : "obj-13",
									"index" : 3,
									"maxclass" : "inlet",
									"numinlets" : 0,
									"numoutlets" : 1,
									"outlettype" : [ "" ],
									"patching_rect" : [ 211.0, 40.0, 30.0, 30.0 ]
								}

							}
, 							{
								"box" : 								{
									"comment" : "",
									"id" : "obj-14",
									"index" : 1,
									"maxclass" : "outlet",
									"numinlets" : 1,
									"numoutlets" : 0,
									"patching_rect" : [ 50.0, 253.0, 30.0, 30.0 ]
								}

							}
 ],
						"lines" : [ 							{
								"patchline" : 								{
									"destination" : [ "obj-2", 0 ],
									"source" : [ "obj-1", 0 ]
								}

							}
, 							{
								"patchline" : 								{
									"destination" : [ "obj-47", 0 ],
									"source" : [ "obj-12", 0 ]
								}

							}
, 							{
								"patchline" : 								{
									"destination" : [ "obj-59", 0 ],
									"source" : [ "obj-13", 0 ]
								}

							}
, 							{
								"patchline" : 								{
									"destination" : [ "obj-47", 1 ],
									"source" : [ "obj-2", 0 ]
								}

							}
, 							{
								"patchline" : 								{
									"destination" : [ "obj-14", 0 ],
									"source" : [ "obj-20", 0 ]
								}

							}
, 							{
								"patchline" : 								{
									"destination" : [ "obj-20", 1 ],
									"source" : [ "obj-25", 0 ]
								}

							}
, 							{
								"patchline" : 								{
									"destination" : [ "obj-57", 0 ],
									"source" : [ "obj-47", 0 ]
								}

							}
, 							{
								"patchline" : 								{
									"destination" : [ "obj-20", 0 ],
									"source" : [ "obj-57", 0 ]
								}

							}
, 							{
								"patchline" : 								{
									"destination" : [ "obj-25", 0 ],
									"source" : [ "obj-59", 0 ]
								}

							}
 ],
						"toolbaradditions" : [ "audiomute", "audiosolo" ]
					}
,
					"patching_rect" : [ 45.0, 151.0, 207.0, 22.0 ],
					"text" : "p ramp"
				}

			}
, 			{
				"box" : 				{
					"id" : "obj-56",
					"maxclass" : "live.text",
					"mode" : 0,
					"numinlets" : 1,
					"numoutlets" : 2,
					"outlettype" : [ "", "" ],
					"parameter_enable" : 1,
					"patching_rect" : [ 233.0, 120.0, 44.0, 15.0 ],
					"presentation" : 1,
					"presentation_rect" : [ 70.0, 100.0, 44.0, 15.0 ],
					"saved_attribute_attributes" : 					{
						"valueof" : 						{
							"parameter_enum" : [ "val1", "val2" ],
							"parameter_invisible" : 2,
							"parameter_longname" : "rewind",
							"parameter_mmax" : 1,
							"parameter_modmode" : 0,
							"parameter_shortname" : "rewind",
							"parameter_type" : 2
						}

					}
,
					"text" : "rewind",
					"transition" : 1,
					"varname" : "rewind"
				}

			}
, 			{
				"box" : 				{
					"activebgcolor" : [ 0.890196078431372, 0.474509803921569, 0.309803921568627, 1.0 ],
					"activebgoncolor" : [ 0.133333333333333, 0.623529411764706, 0.035294117647059, 1.0 ],
					"activetextcolor" : [ 1.0, 1.0, 1.0, 1.0 ],
					"activetextoncolor" : [ 1.0, 1.0, 1.0, 1.0 ],
					"id" : "obj-46",
					"maxclass" : "live.text",
					"numinlets" : 1,
					"numoutlets" : 2,
					"outlettype" : [ "", "" ],
					"parameter_enable" : 1,
					"patching_rect" : [ 45.0, 120.0, 44.0, 15.0 ],
					"presentation" : 1,
					"presentation_rect" : [ 17.0, 100.0, 44.0, 15.0 ],
					"saved_attribute_attributes" : 					{
						"activebgcolor" : 						{
							"expression" : ""
						}
,
						"activebgoncolor" : 						{
							"expression" : ""
						}
,
						"activetextcolor" : 						{
							"expression" : ""
						}
,
						"activetextoncolor" : 						{
							"expression" : ""
						}
,
						"textoffcolor" : 						{
							"expression" : ""
						}
,
						"valueof" : 						{
							"parameter_enum" : [ "val1", "val2" ],
							"parameter_invisible" : 2,
							"parameter_longname" : "play",
							"parameter_mmax" : 1,
							"parameter_modmode" : 0,
							"parameter_shortname" : "play",
							"parameter_type" : 2
						}

					}
,
					"text" : "paused",
					"textoffcolor" : [ 1.0, 1.0, 1.0, 1.0 ],
					"texton" : "playing",
					"varname" : "play"
				}

			}
, 			{
				"box" : 				{
					"bgmode" : 0,
					"border" : 0,
					"clickthrough" : 0,
					"enablehscroll" : 0,
					"enablevscroll" : 0,
					"id" : "obj-2",
					"lockeddragscroll" : 0,
					"lockedsize" : 0,
					"maxclass" : "bpatcher",
					"name" : "flowSwing_noise.maxpat",
					"numinlets" : 8,
					"numoutlets" : 3,
					"offset" : [ 0.0, 0.0 ],
					"outlettype" : [ "multichannelsignal", "multichannelsignal", "" ],
					"patching_rect" : [ 60.0, 638.0, 201.0, 29.0 ],
					"presentation" : 1,
					"presentation_rect" : [ 17.0, 555.0, 430.0, 121.0 ],
					"varname" : "flowSwing_noise",
					"viewvisibility" : 1
				}

			}
, 			{
				"box" : 				{
					"bgmode" : 0,
					"border" : 0,
					"clickthrough" : 0,
					"enablehscroll" : 0,
					"enablevscroll" : 0,
					"id" : "obj-1",
					"lockeddragscroll" : 0,
					"lockedsize" : 0,
					"maxclass" : "bpatcher",
					"name" : "flowSwing_envelop.maxpat",
					"numinlets" : 2,
					"numoutlets" : 9,
					"offset" : [ 0.0, 0.0 ],
					"outlettype" : [ "signal", "multichannelsignal", "signal", "int", "", "", "", "", "" ],
					"patching_rect" : [ 45.0, 183.0, 136.0, 27.0 ],
					"presentation" : 1,
					"presentation_rect" : [ 17.0, 126.0, 714.0, 208.0 ],
					"varname" : "flowSwing_envelop",
					"viewvisibility" : 1
				}

			}
, 			{
				"box" : 				{
					"border" : 0,
					"filename" : "flowSwingStepSequencerUI.js",
					"id" : "obj-3",
					"maxclass" : "jsui",
					"numinlets" : 1,
					"numoutlets" : 2,
					"outlettype" : [ "", "" ],
					"parameter_enable" : 0,
					"patching_rect" : [ 133.0, 351.0, 107.0, 44.0 ],
					"presentation" : 1,
					"presentation_rect" : [ 109.0, 340.0, 603.0, 100.0 ]
				}

			}
, 			{
				"box" : 				{
					"angle" : 270.0,
					"bgcolor" : [ 0.407843137254902, 0.407843137254902, 0.407843137254902, 1.0 ],
					"id" : "obj-4",
					"maxclass" : "panel",
					"mode" : 0,
					"numinlets" : 1,
					"numoutlets" : 0,
					"patching_rect" : [ 554.0, 291.0, 43.0, 41.0 ],
					"presentation" : 1,
					"presentation_rect" : [ 17.0, 340.0, 695.0, 210.0 ],
					"proportion" : 0.5,
					"rounded" : 0
				}

			}
 ],
		"lines" : [ 			{
				"patchline" : 				{
					"destination" : [ "obj-13", 0 ],
					"midpoints" : [ 54.5, 503.5, 199.5, 503.5 ],
					"source" : [ "obj-1", 0 ]
				}

			}
, 			{
				"patchline" : 				{
					"destination" : [ "obj-2", 0 ],
					"source" : [ "obj-1", 1 ]
				}

			}
, 			{
				"patchline" : 				{
					"destination" : [ "obj-28", 1 ],
					"source" : [ "obj-1", 8 ]
				}

			}
, 			{
				"patchline" : 				{
					"destination" : [ "obj-28", 0 ],
					"source" : [ "obj-1", 6 ]
				}

			}
, 			{
				"patchline" : 				{
					"destination" : [ "obj-5", 0 ],
					"midpoints" : [ 83.75, 224.5, 617.5, 224.5 ],
					"source" : [ "obj-1", 2 ]
				}

			}
, 			{
				"patchline" : 				{
					"destination" : [ "obj-10", 0 ],
					"source" : [ "obj-11", 0 ]
				}

			}
, 			{
				"patchline" : 				{
					"destination" : [ "obj-2", 1 ],
					"midpoints" : [ 142.5, 624.5, 95.5, 624.5 ],
					"source" : [ "obj-115", 0 ]
				}

			}
, 			{
				"patchline" : 				{
					"destination" : [ "obj-38", 0 ],
					"source" : [ "obj-12", 0 ]
				}

			}
, 			{
				"patchline" : 				{
					"destination" : [ "obj-2", 5 ],
					"source" : [ "obj-13", 0 ]
				}

			}
, 			{
				"patchline" : 				{
					"destination" : [ "obj-59", 0 ],
					"source" : [ "obj-17", 0 ]
				}

			}
, 			{
				"patchline" : 				{
					"destination" : [ "obj-52", 0 ],
					"source" : [ "obj-19", 0 ]
				}

			}
, 			{
				"patchline" : 				{
					"destination" : [ "obj-33", 1 ],
					"source" : [ "obj-2", 1 ]
				}

			}
, 			{
				"patchline" : 				{
					"destination" : [ "obj-33", 0 ],
					"source" : [ "obj-2", 0 ]
				}

			}
, 			{
				"patchline" : 				{
					"destination" : [ "obj-3", 0 ],
					"order" : 1,
					"source" : [ "obj-28", 0 ]
				}

			}
, 			{
				"patchline" : 				{
					"destination" : [ "obj-52", 0 ],
					"midpoints" : [ 142.5, 306.5, 425.5, 306.5 ],
					"order" : 0,
					"source" : [ "obj-28", 0 ]
				}

			}
, 			{
				"patchline" : 				{
					"destination" : [ "obj-115", 0 ],
					"order" : 1,
					"source" : [ "obj-3", 0 ]
				}

			}
, 			{
				"patchline" : 				{
					"destination" : [ "obj-35", 0 ],
					"source" : [ "obj-3", 1 ]
				}

			}
, 			{
				"patchline" : 				{
					"destination" : [ "obj-41", 0 ],
					"order" : 0,
					"source" : [ "obj-3", 0 ]
				}

			}
, 			{
				"patchline" : 				{
					"destination" : [ "obj-1", 0 ],
					"source" : [ "obj-31", 0 ]
				}

			}
, 			{
				"patchline" : 				{
					"destination" : [ "obj-32", 1 ],
					"source" : [ "obj-33", 1 ]
				}

			}
, 			{
				"patchline" : 				{
					"destination" : [ "obj-32", 0 ],
					"source" : [ "obj-33", 0 ]
				}

			}
, 			{
				"patchline" : 				{
					"destination" : [ "obj-48", 0 ],
					"source" : [ "obj-35", 0 ]
				}

			}
, 			{
				"patchline" : 				{
					"destination" : [ "obj-57", 0 ],
					"source" : [ "obj-35", 1 ]
				}

			}
, 			{
				"patchline" : 				{
					"destination" : [ "obj-3", 0 ],
					"source" : [ "obj-38", 0 ]
				}

			}
, 			{
				"patchline" : 				{
					"destination" : [ "obj-43", 0 ],
					"source" : [ "obj-41", 0 ]
				}

			}
, 			{
				"patchline" : 				{
					"destination" : [ "obj-3", 0 ],
					"source" : [ "obj-43", 0 ]
				}

			}
, 			{
				"patchline" : 				{
					"destination" : [ "obj-52", 0 ],
					"source" : [ "obj-44", 0 ]
				}

			}
, 			{
				"patchline" : 				{
					"destination" : [ "obj-44", 0 ],
					"source" : [ "obj-45", 0 ]
				}

			}
, 			{
				"patchline" : 				{
					"destination" : [ "obj-31", 0 ],
					"source" : [ "obj-46", 0 ]
				}

			}
, 			{
				"patchline" : 				{
					"destination" : [ "obj-51", 0 ],
					"source" : [ "obj-49", 0 ]
				}

			}
, 			{
				"patchline" : 				{
					"destination" : [ "obj-11", 0 ],
					"source" : [ "obj-5", 0 ]
				}

			}
, 			{
				"patchline" : 				{
					"destination" : [ "obj-45", 0 ],
					"order" : 0,
					"source" : [ "obj-52", 0 ]
				}

			}
, 			{
				"patchline" : 				{
					"destination" : [ "obj-49", 0 ],
					"source" : [ "obj-52", 1 ]
				}

			}
, 			{
				"patchline" : 				{
					"destination" : [ "obj-64", 0 ],
					"order" : 1,
					"source" : [ "obj-52", 0 ]
				}

			}
, 			{
				"patchline" : 				{
					"destination" : [ "obj-31", 2 ],
					"source" : [ "obj-56", 0 ]
				}

			}
, 			{
				"patchline" : 				{
					"destination" : [ "obj-52", 0 ],
					"source" : [ "obj-59", 0 ]
				}

			}
, 			{
				"patchline" : 				{
					"destination" : [ "obj-1", 1 ],
					"source" : [ "obj-6", 0 ]
				}

			}
, 			{
				"patchline" : 				{
					"destination" : [ "obj-2", 4 ],
					"midpoints" : [ 425.5, 619.5, 173.5, 619.5 ],
					"source" : [ "obj-64", 0 ]
				}

			}
, 			{
				"patchline" : 				{
					"destination" : [ "obj-6", 0 ],
					"source" : [ "obj-7", 0 ]
				}

			}
, 			{
				"patchline" : 				{
					"destination" : [ "obj-79", 0 ],
					"source" : [ "obj-76", 0 ]
				}

			}
, 			{
				"patchline" : 				{
					"destination" : [ "obj-78", 1 ],
					"source" : [ "obj-79", 0 ]
				}

			}
, 			{
				"patchline" : 				{
					"destination" : [ "obj-31", 1 ],
					"source" : [ "obj-90", 0 ]
				}

			}
 ],
		"parameters" : 		{
			"obj-12" : [ "live.text", "live.text", 0 ],
			"obj-17" : [ "live.text[1]", "live.text", 0 ],
			"obj-1::obj-109" : [ "breakpoints", "breakpoints", 2 ],
			"obj-1::obj-114" : [ "clear_breakpoints", "clear_breakpoints", 0 ],
			"obj-1::obj-123" : [ "asGrid", "asGrid", 1 ],
			"obj-1::obj-128" : [ "zoom", "zoom", 0 ],
			"obj-1::obj-154" : [ "title", "title", 0 ],
			"obj-1::obj-19" : [ "mute", "mute", 0 ],
			"obj-1::obj-191" : [ "snapToNIGrid_parameter", "snapToNIGrid_parameter", 0 ],
			"obj-1::obj-193" : [ "firstChannel_parameter", "firstChannel_parameter", 0 ],
			"obj-1::obj-195" : [ "chans_parameter", "chans_parameter", 0 ],
			"obj-1::obj-199" : [ "resetNIGrid", "resetNIGrid", 0 ],
			"obj-1::obj-22" : [ "lock", "lock", 0 ],
			"obj-1::obj-242" : [ "resetNIGrid[1]", "resetNIGrid", 0 ],
			"obj-1::obj-42" : [ "morph", "morph", 0 ],
			"obj-1::obj-45" : [ "S", "S", 1 ],
			"obj-1::obj-47" : [ "offset", "offset", 0 ],
			"obj-1::obj-48" : [ "niRotation", "niRotation", 0 ],
			"obj-1::obj-50" : [ "Formative", "Formative", 0 ],
			"obj-1::obj-51" : [ "Target", "Target", 0 ],
			"obj-1::obj-90" : [ "secondary_S_control", "secondary_S_control", 0 ],
			"obj-1::obj-91" : [ "hold", "hold", 0 ],
			"obj-2::obj-15" : [ "Noise A", "Noise A", 0 ],
			"obj-2::obj-19" : [ "Skew range", "Skew_range", 0 ],
			"obj-2::obj-20" : [ "Noise F range", "NFrange", 0 ],
			"obj-2::obj-21" : [ "Noise A range", "NArange", 0 ],
			"obj-2::obj-29" : [ "Skew", "Skew", 0 ],
			"obj-2::obj-34" : [ "Filter range", "Filter_range", 0 ],
			"obj-2::obj-38" : [ "filter", "filter", 0 ],
			"obj-2::obj-51" : [ "ampCurve", "ampCurve", 0 ],
			"obj-2::obj-54" : [ "Q range", "Q range", 0 ],
			"obj-2::obj-57" : [ "Q", "Q", 0 ],
			"obj-2::obj-74" : [ "attack", "attack", 0 ],
			"obj-2::obj-75" : [ "decay", "decay", 0 ],
			"obj-2::obj-76" : [ "sustain", "sustain", 0 ],
			"obj-2::obj-77" : [ "release", "release", 0 ],
			"obj-2::obj-8" : [ "Noise F", "Noise F", 0 ],
			"obj-2::obj-96" : [ "envCurve", "envCurve", 0 ],
			"obj-33" : [ "gain", "gain", 0 ],
			"obj-41" : [ "pitches", "pitches", 0 ],
			"obj-45" : [ "skewvalues", "skewvalues", 0 ],
			"obj-46" : [ "play", "play", 0 ],
			"obj-56" : [ "rewind", "rewind", 0 ],
			"obj-90" : [ "CPM", "CPM", 0 ],
			"parameterbanks" : 			{
				"0" : 				{
					"index" : 0,
					"name" : "",
					"parameters" : [ "-", "-", "-", "-", "-", "-", "-", "-" ]
				}

			}
,
			"parameter_overrides" : 			{
				"obj-1::obj-114" : 				{
					"parameter_initial" : 0.0,
					"parameter_initial_enable" : 0,
					"parameter_invisible" : 1
				}

			}
,
			"inherited_shortname" : 1
		}
,
		"dependency_cache" : [ 			{
				"name" : "EnvelopToShape.js",
				"bootpath" : "~/Documents/Max 9/Packages/FlowSwing-Max-MSP/javascript",
				"patcherrelativepath" : "../javascript",
				"type" : "TEXT",
				"implicit" : 1
			}
, 			{
				"name" : "FlowSwing_Grids.maxpat",
				"bootpath" : "~/Documents/Max 9/Packages/FlowSwing-Max-MSP/patchers",
				"patcherrelativepath" : "../patchers",
				"type" : "JSON",
				"implicit" : 1
			}
, 			{
				"name" : "GCD.maxpat",
				"bootpath" : "~/Documents/Max 9/Packages/FlowSwing-Max-MSP/patchers/subpatchers",
				"patcherrelativepath" : "../patchers/subpatchers",
				"type" : "JSON",
				"implicit" : 1
			}
, 			{
				"name" : "Step_sequencer.maxsnap",
				"bootpath" : "~/Documents/Max 9/Snapshots",
				"patcherrelativepath" : "../../../Snapshots",
				"type" : "mx@s",
				"implicit" : 1
			}
, 			{
				"name" : "breakpointsDictToList.maxpat",
				"bootpath" : "~/Documents/Max 9/Packages/FlowSwing-Max-MSP/patchers",
				"patcherrelativepath" : "../patchers",
				"type" : "JSON",
				"implicit" : 1
			}
, 			{
				"name" : "complex_quantise.js",
				"bootpath" : "~/Documents/Max 9/Packages/FlowSwing-Max-MSP/javascript",
				"patcherrelativepath" : "../javascript",
				"type" : "TEXT",
				"implicit" : 1
			}
, 			{
				"name" : "drawNIGrid_zoom.js",
				"bootpath" : "~/Documents/Max 9/Packages/FlowSwing-Max-MSP/jsui",
				"patcherrelativepath" : "../jsui",
				"type" : "TEXT",
				"implicit" : 1
			}
, 			{
				"name" : "euclidean_rhythm.js",
				"bootpath" : "~/Documents/Max 9/Packages/FlowSwing-Max-MSP/javascript",
				"patcherrelativepath" : "../javascript",
				"type" : "TEXT",
				"implicit" : 1
			}
, 			{
				"name" : "flowSwing.ADSR.gendsp",
				"bootpath" : "~/Documents/Max 9/Packages/FlowSwing-Max-MSP/code",
				"patcherrelativepath" : "../code",
				"type" : "gDSP",
				"implicit" : 1
			}
, 			{
				"name" : "flowSwingStepSequencerUI.js",
				"bootpath" : "~/Documents/Max 9/Packages/FlowSwing-Max-MSP/jsui",
				"patcherrelativepath" : "../jsui",
				"type" : "TEXT",
				"implicit" : 1
			}
, 			{
				"name" : "flowSwing_envelop.maxpat",
				"bootpath" : "~/Documents/Max 9/Packages/FlowSwing-Max-MSP/patchers",
				"patcherrelativepath" : "../patchers",
				"type" : "JSON",
				"implicit" : 1
			}
, 			{
				"name" : "flowSwing_noise.maxpat",
				"bootpath" : "~/Documents/Max 9/Packages/FlowSwing-Max-MSP/patchers",
				"patcherrelativepath" : "../patchers",
				"type" : "JSON",
				"implicit" : 1
			}
, 			{
				"name" : "flowSwing_phasor.gendsp",
				"bootpath" : "~/Documents/Max 9/Packages/FlowSwing-Max-MSP/code",
				"patcherrelativepath" : "../code",
				"type" : "gDSP",
				"implicit" : 1
			}
, 			{
				"name" : "flowSwing_wave.gendsp",
				"bootpath" : "~/Documents/Max 9/Packages/FlowSwing-Max-MSP/code",
				"patcherrelativepath" : "../code",
				"type" : "gDSP",
				"implicit" : 1
			}
, 			{
				"name" : "forceLoopOnFunction.js",
				"bootpath" : "~/Documents/Max 9/Packages/FlowSwing-Max-MSP/javascript",
				"patcherrelativepath" : "../javascript",
				"type" : "TEXT",
				"implicit" : 1
			}
, 			{
				"name" : "liminalGrid.maxpat",
				"bootpath" : "~/Documents/Max 9/Packages/FlowSwing-Max-MSP/patchers",
				"patcherrelativepath" : "../patchers",
				"type" : "JSON",
				"implicit" : 1
			}
, 			{
				"name" : "liminal_lock.maxpat",
				"bootpath" : "~/Documents/Max 9/Packages/FlowSwing-Max-MSP/patchers/subpatchers",
				"patcherrelativepath" : "../patchers/subpatchers",
				"type" : "JSON",
				"implicit" : 1
			}
, 			{
				"name" : "loop.svg",
				"bootpath" : "C74:/media/max/picts/m4l-picts",
				"type" : "svg",
				"implicit" : 1
			}
, 			{
				"name" : "mcTriggerV2.gendsp",
				"bootpath" : "~/Documents/Max 9/Packages/FlowSwing-Max-MSP/code",
				"patcherrelativepath" : "../code",
				"type" : "gDSP",
				"implicit" : 1
			}
, 			{
				"name" : "phasor_state.gendsp",
				"bootpath" : "~/Documents/Max 9/Packages/FlowSwing-Max-MSP/code",
				"patcherrelativepath" : "../code",
				"type" : "gDSP",
				"implicit" : 1
			}
, 			{
				"name" : "shift_markers.js",
				"bootpath" : "~/Documents/Max 9/Packages/FlowSwing-Max-MSP/javascript",
				"patcherrelativepath" : "../javascript",
				"type" : "TEXT",
				"implicit" : 1
			}
, 			{
				"name" : "zoomNscroll_coremath.js",
				"bootpath" : "~/Documents/Max 9/Packages/FlowSwing-Max-MSP/javascript",
				"patcherrelativepath" : "../javascript",
				"type" : "TEXT",
				"implicit" : 1
			}
 ],
		"autosave" : 0,
		"snapshot" : 		{
			"filetype" : "C74Snapshot",
			"version" : 2,
			"minorversion" : 0,
			"name" : "snapshotlist",
			"origin" : "jpatcher",
			"type" : "list",
			"subtype" : "Undefined",
			"embed" : 1,
			"snapshot" : 			{
				"valuedictionary" : 				{
					"parameter_values" : 					{
						"CPM" : 40.0,
						"Filter range" : 4.886980447917325,
						"Formative" : 9.0,
						"Noise A" : 0.0,
						"Noise A range" : 0.0,
						"Noise F" : 0.0,
						"Noise F range" : 0.1,
						"Q" : 0.456692913385828,
						"Q range" : 0.0,
						"Skew" : 0.0,
						"Skew range" : 0.0,
						"Target" : 7.0,
						"ampCurve" : 3.357009801475102,
						"attack" : 282.786143947055791,
						"chans_parameter" : 32.0,
						"decay" : 965.48938460562988,
						"envCurve" : 3.692361919836229,
						"filter" : 10.0,
						"firstChannel_parameter" : 1.0,
						"gain" : -16.800000000000004,
						"hold" : 0.0,
						"live.text" : 0.0,
						"live.text[1]" : 0.0,
						"lock" : 1.0,
						"morph" : 1.0,
						"mute" : 0.0,
						"niRotation" : 7.0,
						"offset" : 0.0,
						"release" : 767.063610490275323,
						"snapToNIGrid_parameter" : 1.0,
						"sustain" : 0.503937007874015,
						"S" : 0.515748031496063,
						"blob" : 						{
							"clear_breakpoints" : [ 0 ],
							"pitches" : [ 33, 41, 45.285550302233084, 70, 47 ],
							"skewvalues" : [ -0.705263157894737, -0.431578947368421, 0.494736842105263, 0.642105263157895, -0.536842105263158 ],
							"title" : [ "Synth" ],
							"zoom" : [ 1.0 ],
							"asGrid" : [ 0.574803149606299, 7, 7 ],
							"breakpoints" : [ 								{
									"env" : [ 0, 1, 0, 0.125609298837645, 0.096876309877425, 0, 0.251218597675291, 0.664294241309797, 0, 0.311586051743532, 0.145512132571628, 0, 0.43649615684425, 0.972321118373084, 0.65, 0.562804649418823, 0.226571837061967, 0.45, 0.688413948256468, 0.875049472984678, 0.595, 0.748781402324709, 0.177936014367763, 0.745, 0.874390701162355, 1, 0.695, 0.945941864141457, 0.145512132571628, -0.65, 1, 1, 0.7 ],
									"lock" : 									{
										"associations" : [ 0, 1, 2, 3, 4, 5 ],
										"order" : [ 0, 0, 0, 0, 0, 0 ]
									}
,
									"mute" : [ 0, 1, 0, 1, 0, 0, 0, 1, 1, 1, 0 ]
								}
 ]
						}

					}

				}

			}
,
			"snapshotlist" : 			{
				"current_snapshot" : 0,
				"entries" : [ 					{
						"filetype" : "C74Snapshot",
						"version" : 2,
						"minorversion" : 0,
						"name" : "Step_sequencer",
						"origin" : "Step_sequencer",
						"type" : "patcher",
						"subtype" : "Undefined",
						"embed" : 1,
						"snapshot" : 						{
							"valuedictionary" : 							{
								"parameter_values" : 								{
									"CPM" : 40.0,
									"Filter range" : 4.886980447917325,
									"Formative" : 9.0,
									"Noise A" : 0.0,
									"Noise A range" : 0.0,
									"Noise F" : 0.0,
									"Noise F range" : 0.1,
									"Q" : 0.456692913385828,
									"Q range" : 0.0,
									"Skew" : 0.0,
									"Skew range" : 0.0,
									"Target" : 7.0,
									"ampCurve" : 3.357009801475102,
									"attack" : 282.786143947055791,
									"chans_parameter" : 32.0,
									"decay" : 965.48938460562988,
									"envCurve" : 3.692361919836229,
									"filter" : 10.0,
									"firstChannel_parameter" : 1.0,
									"gain" : -16.800000000000004,
									"hold" : 0.0,
									"live.text" : 0.0,
									"live.text[1]" : 0.0,
									"lock" : 1.0,
									"morph" : 1.0,
									"mute" : 0.0,
									"niRotation" : 7.0,
									"offset" : 0.0,
									"release" : 767.063610490275323,
									"snapToNIGrid_parameter" : 1.0,
									"sustain" : 0.503937007874015,
									"S" : 0.515748031496063,
									"blob" : 									{
										"clear_breakpoints" : [ 0 ],
										"pitches" : [ 33, 41, 45.285550302233084, 70, 47 ],
										"skewvalues" : [ -0.705263157894737, -0.431578947368421, 0.494736842105263, 0.642105263157895, -0.536842105263158 ],
										"title" : [ "Synth" ],
										"zoom" : [ 1.0 ],
										"asGrid" : [ 0.574803149606299, 7, 7 ],
										"breakpoints" : [ 											{
												"env" : [ 0, 1, 0, 0.125609298837645, 0.096876309877425, 0, 0.251218597675291, 0.664294241309797, 0, 0.311586051743532, 0.145512132571628, 0, 0.43649615684425, 0.972321118373084, 0.65, 0.562804649418823, 0.226571837061967, 0.45, 0.688413948256468, 0.875049472984678, 0.595, 0.748781402324709, 0.177936014367763, 0.745, 0.874390701162355, 1, 0.695, 0.945941864141457, 0.145512132571628, -0.65, 1, 1, 0.7 ],
												"lock" : 												{
													"associations" : [ 0, 1, 2, 3, 4, 5 ],
													"order" : [ 0, 0, 0, 0, 0, 0 ]
												}
,
												"mute" : [ 0, 1, 0, 1, 0, 0, 0, 1, 1, 1, 0 ]
											}
 ]
									}

								}

							}

						}
,
						"fileref" : 						{
							"name" : "Step_sequencer",
							"filename" : "Step_sequencer.maxsnap",
							"filepath" : "~/Documents/Max 9/Snapshots",
							"filepos" : -1,
							"snapshotfileid" : "621dcec5de08352b82d072a59845ed6d"
						}

					}
 ]
			}

		}
,
		"toolbaradditions" : [ "audiomute", "audiosolo" ]
	}

}
